<svg xmlns="http://www.w3.org/2000/svg" version="1.1" xmlns:xlink="http://www.w3.org/1999/xlink" xmlns:svgjs="http://svgjs.dev/svgjs" viewBox="0 0 800 800"><defs><filter id="bbburst-blur-1" x="-100%" y="-100%" width="400%" height="400%"><feGaussianBlur in="SourceGraphic" stdDeviation="1"></feGaussianBlur></filter><filter id="bbburst-blur-2" x="-100%" y="-100%" width="400%" height="400%"><feGaussianBlur in="SourceGraphic" stdDeviation="2"></feGaussianBlur></filter><filter id="bbburst-blur-3" x="-100%" y="-100%" width="400%" height="400%"><feGaussianBlur in="SourceGraphic" stdDeviation="4"></feGaussianBlur></filter><filter id="bbburst-blur-4" x="-100%" y="-100%" width="400%" height="400%"><feGaussianBlur in="SourceGraphic" stdDeviation="12"></feGaussianBlur></filter><symbol id="bbburst-shape-1" viewBox="0 0 194 167"><path d="m97 0 96.129 166.5H.871L97 0Z"></path></symbol><symbol id="bbburst-shape-4" viewBox="0 0 149 143"><path d="M71.647 2.781c.898-2.764 4.808-2.764 5.706 0l15.445 47.534a3 3 0 0 0 2.853 2.073h49.98c2.906 0 4.115 3.719 1.764 5.427L106.96 87.193a2.999 2.999 0 0 0-1.09 3.354l15.445 47.534c.898 2.764-2.266 5.062-4.617 3.354l-40.435-29.378a3 3 0 0 0-3.526 0l-40.435 29.378c-2.351 1.708-5.515-.59-4.617-3.354L43.13 90.547a3 3 0 0 0-1.09-3.354L1.605 57.815c-2.35-1.708-1.142-5.427 1.764-5.427h49.98a3 3 0 0 0 2.853-2.073L71.647 2.781Z"></path></symbol><symbol id="bbburst-shape-6" viewBox="0 0 133 116"><path d="M59.7487 10.2513c-13.6683-13.66839-35.8291-13.66839-49.4974 0-13.66839 13.6683-13.66839 35.8291 0 49.4974l49.4974-49.4974ZM66.5 66.5 41.7513 91.2487 66.5 115.997l24.7487-24.7483L66.5 66.5Zm56.249-6.7513c13.668-13.6683 13.668-35.8291 0-49.4974-13.669-13.66839-35.8294-13.66839-49.4977 0l49.4977 49.4974Zm-112.4977 0 31.5 31.5 49.4974-49.4974-31.5-31.5-49.4974 49.4974Zm80.9974 31.5 31.5003-31.5-49.4977-49.4974-31.5 31.5 49.4974 49.4974Z"></path></symbol><symbol id="bbburst-shape-8" viewBox="0 0 87 168"><path d="m12 12 31.2546 18.0749c16.4102 9.4902 20.014 31.6325 7.4603 45.8369L36.3296 92.1884c-12.5684 14.2206-8.9394 36.3916 7.5068 45.8636L75 156" stroke-width="14" stroke-linecap="round" stroke-linejoin="round"></path></symbol><symbol id="bbburst-shape-10" viewBox="0 0 145 145"><circle cx="72.5" cy="72.5" r="61.5" fill="none" stroke-width="22"></circle></symbol></defs><use xlink:href="#bbburst-shape-8" width="25.10622559367182" opacity="0.526698136762975" transform="matrix(0.7762106526953542,0.63047364944322,-0.63047364944322,0.7762106526953542,464.4929215793144,198.63043089149636)" fill="none" stroke="#b59509" filter="url(#bbburst-blur-2)"></use><use xlink:href="#bbburst-shape-10" width="20.666839834129927" opacity="0.7512421017910332" transform="matrix(0.9966461709342544,0.08183159513347447,-0.08183159513347447,0.9966461709342544,416.5529426452165,-111.29053323238725)" fill="none" stroke="#ffbd9b" filter="url(#bbburst-blur-1)"></use><use xlink:href="#bbburst-shape-4" width="25.527605299066256" opacity="0.18947257067612888" transform="matrix(1.1159151293427443,0.5632347859498434,-0.5632347859498434,1.1159151293427443,974.389533095264,-21.770224716993255)" fill="#b59509" filter="url(#bbburst-blur-3)"></use><use xlink:href="#bbburst-shape-6" width="18.12814919220559" opacity="0.780600515280217" transform="matrix(0.967427105069063,0.2531497508939959,-0.2531497508939959,0.967427105069063,446.02112465719006,-76.37499242785617)" fill="#b59509"></use><use xlink:href="#bbburst-shape-6" width="39.79079053556936" opacity="0.35516747371678825" transform="matrix(0.9324096421465049,-0.3614031809935085,0.3614031809935085,0.9324096421465049,138.40757216042903,-238.72532589029032)" fill="#b59509" filter="url(#bbburst-blur-2)"></use><use xlink:href="#bbburst-shape-6" width="36.332624317834444" opacity="0.4808663696663331" transform="matrix(0.9053089988487343,0.42475359516253947,-0.42475359516253947,0.9053089988487343,327.1731096279235,-27.892279232008775)" fill="#ffbd9b" filter="url(#bbburst-blur-2)"></use><use xlink:href="#bbburst-shape-1" width="34.659178374155466" opacity="0.2880791282500277" transform="matrix(1.1981090079966703,0.35641942281143263,-0.35641942281143263,1.1981090079966703,792.583516976654,-256.55001653834273)" fill="#b59509" filter="url(#bbburst-blur-3)"></use><use xlink:href="#bbburst-shape-6" width="13.488679965683113" opacity="0.8535986343137278" transform="matrix(0.881810687900213,0.4716035524727874,-0.4716035524727874,0.881810687900213,563.7770129557723,107.20145038525334)" fill="#b59509"></use><use xlink:href="#bbburst-shape-10" width="44.141487264403224" opacity="-0.08926003436559693" transform="matrix(1.3928909319746436,1.059412503051955,-1.059412503051955,1.3928909319746436,437.44507998536506,-517.9226715705915)" fill="none" stroke="#b59509" filter="url(#bbburst-blur-4)"></use><use xlink:href="#bbburst-shape-8" width="40.47773984027255" opacity="0.28882319693948033" transform="matrix(1.0123496873932898,0.7332449184513374,-0.7332449184513374,1.0123496873932898,491.48464030492846,243.92510369885565)" fill="none" stroke="#b59509" filter="url(#bbburst-blur-3)"></use><use xlink:href="#bbburst-shape-10" width="17.030537204683498" opacity="0.7308593708277173" transform="matrix(0.9053575969334444,-0.4246499990284927,0.4246499990284927,0.9053575969334444,339.1924582471214,9.299860305218147)" fill="none" stroke="#b59509" filter="url(#bbburst-blur-1)"></use><use xlink:href="#bbburst-shape-10" width="18.34011730931498" opacity="0.7397700529079221" transform="matrix(0.7573568741682482,-0.6530011984292987,0.6530011984292987,0.7573568741682482,178.83297011811544,-4.221882768193723)" fill="none" stroke="#b59509" filter="url(#bbburst-blur-1)"></use><use xlink:href="#bbburst-shape-8" width="35.71320627445371" opacity="0.07319419541013517" transform="matrix(1.5946630588713822,0.7207979804848003,-0.7207979804848003,1.5946630588713822,1017.2922074036644,-465.6128238243476)" fill="none" stroke="#b59509" filter="url(#bbburst-blur-4)"></use><use xlink:href="#bbburst-shape-6" width="34.986657871206944" opacity="0.21933995695791342" transform="matrix(1.231333043296582,-0.21521834607202459,0.21521834607202459,1.231333043296582,182.19940327013967,244.80593195417475)" fill="#b59509" filter="url(#bbburst-blur-3)"></use><use xlink:href="#bbburst-shape-4" width="38.7131975022536" opacity="0.2138500054324063" transform="matrix(1.2331414558465583,-0.20460241902927345,0.20460241902927345,1.2331414558465583,575.3615884529997,125.58195580904044)" fill="#ffbd9b" filter="url(#bbburst-blur-3)"></use><use xlink:href="#bbburst-shape-6" width="32.65439743705723" opacity="0.2808615994421402" transform="matrix(1.1068571012955069,-0.5808333300626847,0.5808333300626847,1.1068571012955069,457.87401057115176,65.17346502803792)" fill="#b59509" filter="url(#bbburst-blur-3)"></use><use xlink:href="#bbburst-shape-4" width="15.852413623272257" opacity="0.8554429874395769" transform="matrix(0.9958967000930672,-0.09049730793642054,0.09049730793642054,0.9958967000930672,303.75656478540077,41.25411434367186)" fill="#ffbd9b"></use><use xlink:href="#bbburst-shape-10" width="26.070047464624345" opacity="0.3221452387335262" transform="matrix(1.0650935443376333,0.6542749741586469,-0.6542749741586469,1.0650935443376333,641.8907090734988,-339.5427756499046)" fill="none" stroke="#ffbd9b" filter="url(#bbburst-blur-3)"></use><use xlink:href="#bbburst-shape-10" width="38.79992224629531" opacity="-0.0804820128440078" transform="matrix(1.739581303513897,0.19067482388844997,-0.19067482388844997,1.739581303513897,786.231249925685,-643.437005279107)" fill="none" stroke="#ffbd9b" filter="url(#bbburst-blur-4)"></use><use xlink:href="#bbburst-shape-6" width="14.546327235890729" opacity="0.8031782440286663" transform="matrix(0.9832702267158671,0.18215285134778283,-0.18215285134778283,0.9832702267158671,392.1528191231572,-43.96835814710573)" fill="#b59509"></use><use xlink:href="#bbburst-shape-4" width="34.024953570774656" opacity="0.5262517785514458" transform="matrix(0.9085475374974282,0.41778148846898333,-0.41778148846898333,0.9085475374974282,469.40911552956686,-167.18645022319268)" fill="#ffbd9b" filter="url(#bbburst-blur-2)"></use><use xlink:href="#bbburst-shape-4" width="41.7009836752606" opacity="0.3320767446739554" transform="matrix(1.090224828351776,0.6114816625585272,-0.6114816625585272,1.090224828351776,379.26677210355166,128.68100075097072)" fill="#ffbd9b" filter="url(#bbburst-blur-3)"></use><use xlink:href="#bbburst-shape-4" width="21.421019695747493" opacity="0.7347175843199141" transform="matrix(0.9270380282039439,0.3749673242613866,-0.3749673242613866,0.9270380282039439,629.4889668483686,-53.88072139399458)" fill="#b59509" filter="url(#bbburst-blur-1)"></use><use xlink:href="#bbburst-shape-10" width="13.797444803133459" opacity="0.9381688129254654" transform="matrix(0.8316921088104364,0.5552370990328809,-0.5552370990328809,0.8316921088104364,591.8628754567708,76.69133045122527)" fill="none" stroke="#b59509"></use><use xlink:href="#bbburst-shape-1" width="35.22454815784934" opacity="0.46640940102170025" transform="matrix(0.8265302009780898,-0.5628923759220038,0.5628923759220038,0.8265302009780898,8.088173822696945,265.0369205402779)" fill="#b59509" filter="url(#bbburst-blur-2)"></use><use xlink:href="#bbburst-shape-4" width="16.731403679803684" opacity="0.8248694326397596" transform="matrix(0.8197186184644515,-0.5727664328002567,0.5727664328002567,0.8197186184644515,200.5140096462965,7.053876468662054)" fill="#b59509"></use><use xlink:href="#bbburst-shape-4" width="10.965591882049186" opacity="0.9058124281852861" transform="matrix(0.7433426543461978,-0.6689108298043537,0.6689108298043537,0.7433426543461978,147.97388088282025,68.76130184503972)" fill="#ffbd9b"></use><use xlink:href="#bbburst-shape-4" width="22.17469712521165" opacity="0.6307069697574796" transform="matrix(0.9363439298981162,0.3510840995302287,-0.3510840995302287,0.9363439298981162,511.38532094682967,-143.54226268981455)" fill="#b59509" filter="url(#bbburst-blur-1)"></use><use xlink:href="#bbburst-shape-6" width="17.128089910978936" opacity="0.6614609587570299" transform="matrix(0.9502731427217016,-0.3114176523927641,0.3114176523927641,0.9502731427217016,195.9066721530854,-112.02288793194322)" fill="#b59509" filter="url(#bbburst-blur-1)"></use><use xlink:href="#bbburst-shape-6" width="34.07925880983199" opacity="0.3049071144756378" transform="matrix(1.2498799976988966,0.017320258433594953,-0.017320258433594953,1.2498799976988966,133.82941761204842,-285.8130412772441)" fill="#b59509" filter="url(#bbburst-blur-3)"></use><use xlink:href="#bbburst-shape-4" width="23.510637309862183" opacity="0.5223305048308329" transform="matrix(0.9712492285454069,-0.23806498283021804,0.23806498283021804,0.9712492285454069,334.5654154466772,-196.6456018339904)" fill="#b59509" filter="url(#bbburst-blur-2)"></use><use xlink:href="#bbburst-shape-6" width="34.45715313685936" opacity="0.18409866477905346" transform="matrix(1.2073834389169698,0.32361278007679484,-0.32361278007679484,1.2073834389169698,145.3802582334675,-141.84886062329662)" fill="#b59509" filter="url(#bbburst-blur-3)"></use><use xlink:href="#bbburst-shape-6" width="37.177173235526595" opacity="-0.07955133026063144" transform="matrix(1.6523730903229819,-0.5763359874035965,0.5763359874035965,1.6523730903229819,-205.64883442342955,92.38532338810546)" fill="#b59509" filter="url(#bbburst-blur-4)"></use><use xlink:href="#bbburst-shape-8" width="29.793709145647686" opacity="0.43510449480409563" transform="matrix(0.8795608219554211,0.47578646521428514,-0.47578646521428514,0.8795608219554211,798.6331639903631,165.95499358768052)" fill="none" stroke="#ffbd9b" filter="url(#bbburst-blur-2)"></use><use xlink:href="#bbburst-shape-10" width="22.769431497684767" opacity="0.6895573888410351" transform="matrix(0.9427885972626653,-0.3333911529592468,0.3333911529592468,0.9427885972626653,154.76343582849313,-69.6796078842778)" fill="none" stroke="#b59509" filter="url(#bbburst-blur-1)"></use><use xlink:href="#bbburst-shape-1" width="23.30209565244077" opacity="0.47749163480713264" transform="matrix(0.9975554315587517,-0.06987961768378965,0.06987961768378965,0.9975554315587517,339.5913201848986,-232.381764374429)" fill="#b59509" filter="url(#bbburst-blur-2)"></use><use xlink:href="#bbburst-shape-6" width="27.207103077899635" opacity="0.17690056407026267" transform="matrix(1.231965214090837,-0.21156963692864347,0.21156963692864347,1.231965214090837,-65.9243457384072,-24.297305117945257)" fill="#b59509" filter="url(#bbburst-blur-3)"></use><use xlink:href="#bbburst-shape-6" width="29.20700563827824" opacity="0.5506822138183123" transform="matrix(0.7241958283426285,0.6895943751301442,-0.6895943751301442,0.7241958283426285,795.4456830096369,254.9580674925486)" fill="#b59509" filter="url(#bbburst-blur-2)"></use><use xlink:href="#bbburst-shape-8" width="10.222447017273371" opacity="0.8784130907768927" transform="matrix(0.8735320205334159,-0.4867666885714425,0.4867666885714425,0.8735320205334159,233.82954750366008,96.71649230552259)" fill="none" stroke="#b59509"></use><use xlink:href="#bbburst-shape-6" width="28.720649944559053" opacity="0.6079735956730876" transform="matrix(0.9999254508337135,-0.012210355236220601,0.012210355236220601,0.9999254508337135,532.2283589354929,-90.22386870817638)" fill="#ffbd9b" filter="url(#bbburst-blur-1)"></use><use xlink:href="#bbburst-shape-6" width="36.055981021734425" opacity="0.17642751478297103" transform="matrix(1.0428376093660947,-0.6891949800249625,0.6891949800249625,1.0428376093660947,195.89150978644506,-364.13068953200553)" fill="#ffbd9b" filter="url(#bbburst-blur-3)"></use><use xlink:href="#bbburst-shape-10" width="26.797359904016066" opacity="0.6177147929372414" transform="matrix(0.9298783788151678,0.3678670963977008,-0.3678670963977008,0.9298783788151678,686.5149164418101,104.00382333633803)" fill="none" stroke="#b59509" filter="url(#bbburst-blur-1)"></use><use xlink:href="#bbburst-shape-8" width="34.161123815087166" opacity="0.43429185518523894" transform="matrix(0.9993219453023982,0.03681914769560559,-0.03681914769560559,0.9993219453023982,632.2424952985631,-99.22952810317588)" fill="none" stroke="#ffbd9b" filter="url(#bbburst-blur-2)"></use><use xlink:href="#bbburst-shape-8" width="33.814254740944506" opacity="0.4988867522577235" transform="matrix(0.967384686148039,0.2533118019482316,-0.2533118019482316,0.967384686148039,340.35507418974214,-164.261206487441)" fill="none" stroke="#b59509" filter="url(#bbburst-blur-2)"></use><use xlink:href="#bbburst-shape-1" width="17.819856764488595" opacity="0.7277511405878214" transform="matrix(0.7548508032372814,0.6558965351730646,-0.6558965351730646,0.7548508032372814,557.8613852241178,166.07644501220437)" fill="#ffbd9b" filter="url(#bbburst-blur-1)"></use><use xlink:href="#bbburst-shape-8" width="15.977876970310534" opacity="0.8136506701032633" transform="matrix(0.7934712540440136,-0.60860772999184,0.60860772999184,0.7934712540440136,175.53140783906235,167.4189686119463)" fill="none" stroke="#b59509"></use><use xlink:href="#bbburst-shape-6" width="23.84558516102331" opacity="0.6928000000445567" transform="matrix(0.9759639892064433,-0.21793185121098124,0.21793185121098124,0.9759639892064433,384.3618661675583,122.63458845522331)" fill="#b59509" filter="url(#bbburst-blur-1)"></use><use xlink:href="#bbburst-shape-6" width="12.318402778676592" opacity="0.8982118593983102" transform="matrix(0.9990354275187304,0.0439114399953772,-0.0439114399953772,0.9990354275187304,453.973993742364,17.041393367965895)" fill="#b59509"></use><use xlink:href="#bbburst-shape-10" width="14.391512992483728" opacity="0.8289073845126684" transform="matrix(0.8991623960968466,0.4376151110797908,-0.4376151110797908,0.8991623960968466,634.9640237912253,-1.8053994346228137)" fill="none" stroke="#ffbd9b"></use><use xlink:href="#bbburst-shape-4" width="29.275545158864688" opacity="0.5532267388842463" transform="matrix(0.7494386076951023,-0.662073842781926,0.662073842781926,0.7494386076951023,183.74137396037514,301.9702678083077)" fill="#b59509" filter="url(#bbburst-blur-2)"></use><use xlink:href="#bbburst-shape-10" width="16.03017305776823" opacity="0.8267748601168131" transform="matrix(0.9820120764851669,0.1888181178734996,-0.1888181178734996,0.9820120764851669,545.4625161657033,10.43608634961646)" fill="none" stroke="#b59509"></use><use xlink:href="#bbburst-shape-6" width="30.823572843300802" opacity="0.5590300166353032" transform="matrix(0.9509588291931579,-0.30931748282238813,0.30931748282238813,0.9509588291931579,456.84370105572907,-11.163580727991075)" fill="#b59509" filter="url(#bbburst-blur-1)"></use><use xlink:href="#bbburst-shape-10" width="32.18245706991526" opacity="0.4837074732084895" transform="matrix(0.8891767466408794,-0.45756388978277257,0.45756388978277257,0.8891767466408794,313.89731756208874,-152.28265323419342)" fill="none" stroke="#ffbd9b" filter="url(#bbburst-blur-2)"></use><use xlink:href="#bbburst-shape-4" width="33.429537231580646" opacity="0.29324690141650134" transform="matrix(0.9644827557374048,0.7951559682761499,-0.7951559682761499,0.9644827557374048,513.5834848697925,-255.33420693314338)" fill="#b59509" filter="url(#bbburst-blur-3)"></use><use xlink:href="#bbburst-shape-8" width="22.648074441316222" opacity="0.6156905247966983" transform="matrix(0.8326469875384905,-0.5538041117065462,0.5538041117065462,0.8326469875384905,98.79352291934745,231.23813428367697)" fill="none" stroke="#b59509" filter="url(#bbburst-blur-1)"></use><use xlink:href="#bbburst-shape-6" width="36.94722704268277" opacity="0.2955138902931519" transform="matrix(0.9184494414771155,0.8479095608910037,-0.8479095608910037,0.9184494414771155,891.91365796772,-250.80618758543926)" fill="#ffbd9b" filter="url(#bbburst-blur-3)"></use><use xlink:href="#bbburst-shape-1" width="18.711197278012303" opacity="0.6372545212394519" transform="matrix(0.9248841139180205,0.380249097069379,-0.380249097069379,0.9248841139180205,391.0179446909797,84.94113642130583)" fill="#b59509" filter="url(#bbburst-blur-1)"></use><use xlink:href="#bbburst-shape-4" width="17.471361101383394" opacity="0.7582502750301269" transform="matrix(0.8370518801403517,-0.5471235234876146,0.5471235234876146,0.8370518801403517,115.97119627826447,162.08655316935085)" fill="#ffbd9b" filter="url(#bbburst-blur-1)"></use><use xlink:href="#bbburst-shape-4" width="29.992625613658426" opacity="0.5372830172750243" transform="matrix(0.7117829396930921,-0.7023994922847395,0.7023994922847395,0.7117829396930921,-99.10472017490252,143.29268957909733)" fill="#ffbd9b" filter="url(#bbburst-blur-2)"></use><use xlink:href="#bbburst-shape-4" width="27.411063393584676" opacity="0.18224094742640196" transform="matrix(1.1017608648013413,-0.5904430512692994,0.5904430512692994,1.1017608648013413,109.76124397581466,-398.5062320972594)" fill="#b59509" filter="url(#bbburst-blur-3)"></use><use xlink:href="#bbburst-shape-8" width="29.44336917345273" opacity="0.2752092757699931" transform="matrix(0.9920166710322543,0.7605280562833194,-0.7605280562833194,0.9920166710322543,384.6086846371137,107.55492631718852)" fill="none" stroke="#ffbd9b" filter="url(#bbburst-blur-3)"></use><use xlink:href="#bbburst-shape-10" width="37.7644014198908" opacity="0.38012368030040655" transform="matrix(0.7831916359796558,-0.6217803963872697,0.6217803963872697,0.7831916359796558,323.30716180211556,305.6180480464882)" fill="none" stroke="#b59509" filter="url(#bbburst-blur-2)"></use><use xlink:href="#bbburst-shape-4" width="18.389218392938446" opacity="0.7437993059573224" transform="matrix(0.9340940860708034,-0.3570269434756298,0.3570269434756298,0.9340940860708034,358.04183404102207,65.9342532380416)" fill="#b59509" filter="url(#bbburst-blur-1)"></use><use xlink:href="#bbburst-shape-8" width="60.37067006293334" opacity="-0.060292352716859066" transform="matrix(1.406909140937562,1.0407241080835647,-1.0407241080835647,1.406909140937562,1110.4734440575548,143.93421362253207)" fill="none" stroke="#b59509" filter="url(#bbburst-blur-4)"></use><use xlink:href="#bbburst-shape-1" width="18.66488370051465" opacity="0.8225686812438595" transform="matrix(0.802449062547666,-0.596720623086191,0.596720623086191,0.802449062547666,74.04359384366848,81.77196323395498)" fill="#b59509"></use><use xlink:href="#bbburst-shape-6" width="18.94785667877623" opacity="0.7025063350476317" transform="matrix(0.8643608436657321,0.5028720830762669,-0.5028720830762669,0.8643608436657321,621.8215996871837,180.21560643710512)" fill="#b59509" filter="url(#bbburst-blur-1)"></use><use xlink:href="#bbburst-shape-4" width="23.589541255190642" opacity="0.4636677633109393" transform="matrix(0.8034723892188311,0.595342019147803,-0.595342019147803,0.8034723892188311,425.56657691806043,-58.80769292893336)" fill="#b59509" filter="url(#bbburst-blur-2)"></use><use xlink:href="#bbburst-shape-6" width="20.64116222299869" opacity="0.7417130618961565" transform="matrix(0.9925619942524005,-0.12174024628567841,0.12174024628567841,0.9925619942524005,321.5729572204499,118.81573384491116)" fill="#b59509" filter="url(#bbburst-blur-1)"></use><use xlink:href="#bbburst-shape-4" width="41.318789426021254" opacity="0.4429474615463288" transform="matrix(0.9482196023714831,-0.31761546826070447,0.31761546826070447,0.9482196023714831,168.34172138007077,263.11967343984804)" fill="#ffbd9b" filter="url(#bbburst-blur-2)"></use><use xlink:href="#bbburst-shape-8" width="45.900773080203166" opacity="0.19042494701466406" transform="matrix(1.2474955034617423,-0.07908836098146332,0.07908836098146332,1.2474955034617423,691.9487835831976,-190.27297155372605)" fill="none" stroke="#b59509" filter="url(#bbburst-blur-3)"></use><use xlink:href="#bbburst-shape-8" width="33.597258360791514" opacity="0.3571272021777945" transform="matrix(0.9967006520624732,-0.08116532620670427,0.08116532620670427,0.9967006520624732,61.506784970667866,4.95237902536627)" fill="none" stroke="#b59509" filter="url(#bbburst-blur-2)"></use><use xlink:href="#bbburst-shape-10" width="10.34375988085829" opacity="0.940083518327598" transform="matrix(0.8802383310756304,-0.47453185404690035,0.47453185404690035,0.8802383310756304,193.23176875025553,26.418600612312787)" fill="none" stroke="#b59509"></use><use xlink:href="#bbburst-shape-6" width="33.32518371480087" opacity="0.19799656139174482" transform="matrix(1.0412353936159482,0.6916132265084595,-0.6916132265084595,1.0412353936159482,628.2946998360958,331.5498049105163)" fill="#b59509" filter="url(#bbburst-blur-3)"></use><use xlink:href="#bbburst-shape-8" width="39.26860649966167" opacity="0.04141298679242089" transform="matrix(1.616514336421726,0.6703591575737787,-0.6703591575737787,1.616514336421726,387.8977602195225,-612.3573550178253)" fill="none" stroke="#b59509" filter="url(#bbburst-blur-4)"></use><use xlink:href="#bbburst-shape-4" width="45.49152107951778" opacity="0.3698517160613801" transform="matrix(0.7453161893610664,-0.6667111652554643,0.6667111652554643,0.7453161893610664,228.3293878923477,377.60654841685357)" fill="#b59509" filter="url(#bbburst-blur-2)"></use><use xlink:href="#bbburst-shape-4" width="33.2200617651364" opacity="0.29988189300310986" transform="matrix(0.931489004207857,-0.8335635758836006,0.8335635758836006,0.931489004207857,-245.38960204870145,-65.19282377078753)" fill="#b59509" filter="url(#bbburst-blur-3)"></use><use xlink:href="#bbburst-shape-4" width="33.261265882511935" opacity="0.3585457218995741" transform="matrix(0.7522280778569415,0.6589028144450828,-0.6589028144450828,0.7522280778569415,726.4795860886865,-190.44618279390096)" fill="#b59509" filter="url(#bbburst-blur-2)"></use><use xlink:href="#bbburst-shape-6" width="46.5174943451339" opacity="0.08492595330596842" transform="matrix(1.342870760478738,-1.1221399737337834,1.1221399737337834,1.342870760478738,-438.04342369858097,92.50556219910038)" fill="#b59509" filter="url(#bbburst-blur-4)"></use><use xlink:href="#bbburst-shape-4" width="43.88166065497863" opacity="0.1542305612059427" transform="matrix(1.2282643234694786,0.232092118978789,-0.232092118978789,1.2282643234694786,734.0286541851096,-366.4396893910126)" fill="#b59509" filter="url(#bbburst-blur-3)"></use><use xlink:href="#bbburst-shape-6" width="33.96362031541493" opacity="0.1423319190878778" transform="matrix(1.2050567228414213,0.3321720860257439,-0.3321720860257439,1.2050567228414213,232.66286725045123,178.23614702905712)" fill="#ffbd9b" filter="url(#bbburst-blur-3)"></use><use xlink:href="#bbburst-shape-6" width="22.206447713408778" opacity="0.6554709762828362" transform="matrix(0.984197895924932,-0.17707202392511565,0.17707202392511565,0.984197895924932,472.89353395020544,19.249051664312844)" fill="#b59509" filter="url(#bbburst-blur-1)"></use><use xlink:href="#bbburst-shape-8" width="20.85351887378021" opacity="0.7124829306100982" transform="matrix(0.7401266318703345,-0.6724675224843757,0.6724675224843757,0.7401266318703345,-5.594623786506816,122.23563517375408)" fill="none" stroke="#ffbd9b" filter="url(#bbburst-blur-1)"></use><use xlink:href="#bbburst-shape-1" width="25.150022103423" opacity="0.6277758492105701" transform="matrix(0.9163341665353131,-0.4004144043862972,0.4004144043862972,0.9163341665353131,62.83664300754168,12.63970829915911)" fill="#b59509" filter="url(#bbburst-blur-1)"></use><use xlink:href="#bbburst-shape-10" width="31.907395471350902" opacity="0.44588567447832783" transform="matrix(0.8795594069519476,0.475789081045728,-0.475789081045728,0.8795594069519476,339.7384075997976,119.4691500943789)" fill="none" stroke="#b59509" filter="url(#bbburst-blur-2)"></use><use xlink:href="#bbburst-shape-4" width="15.346640057594572" opacity="0.9259533285206036" transform="matrix(0.7337139413924173,0.6794584992524594,-0.6794584992524594,0.7337139413924173,667.391386481946,134.60858296239343)" fill="#b59509"></use><use xlink:href="#bbburst-shape-6" width="51.358215861076104" opacity="0.21437347710182186" transform="matrix(0.9120421894766875,-0.8547976629674241,0.8547976629674241,0.9120421894766875,100.37440623725547,404.5050408189014)" fill="#ffbd9b" filter="url(#bbburst-blur-3)"></use><use xlink:href="#bbburst-shape-4" width="47.741431096980605" opacity="0.09803624073176453" transform="matrix(1.6553684614328534,0.5676753093921102,-0.5676753093921102,1.6553684614328534,227.3855552057299,-462.8085462464886)" fill="#b59509" filter="url(#bbburst-blur-4)"></use><use xlink:href="#bbburst-shape-8" width="29.484268610644154" opacity="0.08500034071778917" transform="matrix(1.395316389060774,-1.056215969590691,1.056215969590691,1.395316389060774,320.26396000837235,51.18717698688863)" fill="none" stroke="#b59509" filter="url(#bbburst-blur-4)"></use><use xlink:href="#bbburst-shape-10" width="15.876111576109892" opacity="0.7816890317722325" transform="matrix(0.9227411927106911,0.38542014902551636,-0.38542014902551636,0.9227411927106911,455.03389587151685,62.8028632053078)" fill="none" stroke="#b59509"></use><use xlink:href="#bbburst-shape-4" width="15.782880402391193" opacity="0.8684996609024506" transform="matrix(0.7596213521954869,-0.6503655904863819,0.6503655904863819,0.7596213521954869,97.36070383170022,54.72349494762102)" fill="#b59509"></use><use xlink:href="#bbburst-shape-6" width="38.64901805449868" opacity="0.49043810216588013" transform="matrix(0.9781692145494602,-0.2078099798077372,0.2078099798077372,0.9781692145494602,523.8820107455942,52.05671123426208)" fill="#ffbd9b" filter="url(#bbburst-blur-2)"></use><use xlink:href="#bbburst-shape-8" width="28.576706353382214" opacity="0.6178962289705066" transform="matrix(0.8701683993084585,0.49275445898028675,-0.49275445898028675,0.8701683993084585,689.9405513913246,-91.06191377816162)" fill="none" stroke="#ffbd9b" filter="url(#bbburst-blur-1)"></use><use xlink:href="#bbburst-shape-10" width="16.938873151789124" opacity="0.7325036422891111" transform="matrix(0.8729028460974801,-0.48789406767752247,0.48789406767752247,0.8729028460974801,83.53594791352413,16.067595353100046)" fill="none" stroke="#b59509" filter="url(#bbburst-blur-1)"></use><use xlink:href="#bbburst-shape-10" width="33.49618579830598" opacity="0.07543718936824884" transform="matrix(1.7468013037060655,-0.10576013129147395,0.10576013129147395,1.7468013037060655,541.5457201058107,-654.2816045702477)" fill="none" stroke="#ffbd9b" filter="url(#bbburst-blur-4)"></use><use xlink:href="#bbburst-shape-4" width="16.440048621009442" opacity="0.8519838648113303" transform="matrix(0.8870235867448846,0.4617241130353063,-0.4617241130353063,0.8870235867448846,573.1957804960217,-25.06656876437478)" fill="#ffbd9b"></use><use xlink:href="#bbburst-shape-4" width="32.305267311745304" opacity="0.1081158219694699" transform="matrix(1.6913892792699963,0.4491127987160053,-0.4491127987160053,1.6913892792699963,727.5800078638933,77.29497689315895)" fill="#b59509" filter="url(#bbburst-blur-4)"></use><use xlink:href="#bbburst-shape-6" width="41.991448003711376" opacity="0.40713787109445143" transform="matrix(0.7732021024280185,-0.6341596871458262,0.6341596871458262,0.7732021024280185,130.78079599948796,370.82124791242677)" fill="#b59509" filter="url(#bbburst-blur-2)"></use><use xlink:href="#bbburst-shape-10" width="23.8374151145054" opacity="0.6463350754516946" transform="matrix(0.8928145377053405,-0.4504244678766898,0.4504244678766898,0.8928145377053405,251.9914709479226,-105.04277294769878)" fill="none" stroke="#b59509" filter="url(#bbburst-blur-1)"></use><use xlink:href="#bbburst-shape-10" width="38.368672797858544" opacity="0.07322914560202443" transform="matrix(1.735083998856658,-0.2279989405931292,0.2279989405931292,1.735083998856658,60.42678318023499,67.64365517108547)" fill="none" stroke="#ffbd9b" filter="url(#bbburst-blur-4)"></use><use xlink:href="#bbburst-shape-10" width="42.86258500070818" opacity="0.3661214171890508" transform="matrix(0.7138379374796641,-0.7003109302408319,0.7003109302408319,0.7138379374796641,388.85472832266214,105.99624725979885)" fill="none" stroke="#b59509" filter="url(#bbburst-blur-2)"></use><use xlink:href="#bbburst-shape-4" width="41.89294350219882" opacity="0.15208504751832486" transform="matrix(0.9788439425115936,0.7774088603870941,-0.7774088603870941,0.9788439425115936,545.2341001280038,-360.64031630955355)" fill="#ffbd9b" filter="url(#bbburst-blur-3)"></use><use xlink:href="#bbburst-shape-10" width="36.42603484488636" opacity="0.12459047824949288" transform="matrix(0.9601050355181671,-0.8004363314921801,0.8004363314921801,0.9601050355181671,-232.11912238711508,-231.14781091785312)" fill="none" stroke="#ffbd9b" filter="url(#bbburst-blur-3)"></use><use xlink:href="#bbburst-shape-6" width="18.895017187154597" opacity="0.6275126073299196" transform="matrix(0.8330169718582818,-0.553247435236765,0.553247435236765,0.8330169718582818,56.835568559862736,194.90726083488914)" fill="#b59509" filter="url(#bbburst-blur-1)"></use><use xlink:href="#bbburst-shape-6" width="14.82145050217462" opacity="0.790306188153622" transform="matrix(0.9819818140138808,0.1889754400603631,-0.1889754400603631,0.9819818140138808,540.711545351624,66.3269618417541)" fill="#b59509"></use><use xlink:href="#bbburst-shape-1" width="34.43310739033094" opacity="0.4444496480224931" transform="matrix(0.7889905461312168,0.6144053369849292,-0.6144053369849292,0.7889905461312168,813.7686839804428,-97.93527912715928)" fill="#b59509" filter="url(#bbburst-blur-2)"></use><use xlink:href="#bbburst-shape-6" width="34.24882965684344" opacity="0.5879181112659315" transform="matrix(0.9011147419980845,-0.4335806980871331,0.4335806980871331,0.9011147419980845,197.5787121649944,231.91980706227338)" fill="#b59509" filter="url(#bbburst-blur-1)"></use><use xlink:href="#bbburst-shape-6" width="22.941198643311374" opacity="0.6093604249534776" transform="matrix(0.8569934290245946,0.5153273353982564,-0.5153273353982564,0.8569934290245946,444.26722665219074,-36.9534662613965)" fill="#b59509" filter="url(#bbburst-blur-1)"></use><use xlink:href="#bbburst-shape-6" width="12.708362015236133" opacity="0.9030678801478422" transform="matrix(0.7177978560410228,0.6962515621978246,-0.6962515621978246,0.7177978560410228,715.0915217524293,93.99424424463922)" fill="#b59509"></use><use xlink:href="#bbburst-shape-1" width="12.466710189842782" opacity="0.9788302855247946" transform="matrix(0.905403318036951,0.42455250757436336,-0.42455250757436336,0.905403318036951,573.6874647367971,34.78389782226526)" fill="#b59509"></use><use xlink:href="#bbburst-shape-6" width="15.386706884241532" opacity="0.8929243199324038" transform="matrix(0.7701675158383469,-0.6378416712220908,0.6378416712220908,0.7701675158383469,92.00796823705718,85.92009654989073)" fill="#ffbd9b"></use><use xlink:href="#bbburst-shape-10" width="33.43824388581094" opacity="0.1611099494533601" transform="matrix(0.9643656018210074,-0.7952980485480937,0.7952980485480937,0.9643656018210074,295.7735507976191,326.8817494271216)" fill="none" stroke="#b59509" filter="url(#bbburst-blur-3)"></use></svg>