<svg xmlns="http://www.w3.org/2000/svg" version="1.1" xmlns:xlink="http://www.w3.org/1999/xlink" xmlns:svgjs="http://svgjs.dev/svgjs" viewBox="0 0 800 800"><defs><linearGradient x1="50%" y1="0%" x2="50%" y2="100%" id="ccchaos-grad"><stop stop-color="hsl(37, 99%, 67%)" stop-opacity="1" offset="0%"></stop><stop stop-color="hsl(316, 73%, 52%)" stop-opacity="1" offset="100%"></stop></linearGradient></defs><g stroke-width="2" stroke="url(#ccchaos-grad)" fill="none" stroke-linecap="round"><path d="M418.1 114.94C428.4 110.57 438.9 107.06 449.56 104.73 460.23 103.34 471.04 103.59 481.9 105.5 492.7 108.62 503.45 113.25 514.01 119.13 524.34 125.66 534.28 132.9 543.64 140.51 552.48 147.9 560.47 155.14 567.38 162.03 575.93 170.85 584.98 184.43 585.59 189.61 584.73 193.82 582.41 202.9 583.83 208.61 587.3 212.84 592.82 217.8 600.68 223.49 611.11 229.56 623.72 236.36 638.11 243.81 653.68 251.63 669.52 260.02 684.54 268.86 697.87 277.98 708.33 287.44 714.98 297.13 717.69 306.99 715.84 316.99 709.61 327.03 700.32 337.15 688.4 347.25 675.23 357.25 663.04 367.28 652.68 377.16 645.5 386.84 642.98 396.52 644.86 405.74 650.71 414.5 660.22 423.25 671.56 431.55 683.27 439.41 694.59 447.3 703.52 454.82 709.07 462.02 711.16 469.36 708.93 476.51 702.59 483.57 692.93 490.97 680.31 498.49 665.72 506.26 650.17 514.61 634.47 523.43 619.47 532.83 605.83 542.98 593.97 553.83 584.09 565.36 576.43 577.53 570.7 590.21 566.59 603.2 564.18 616.24 562.67 629.05 561.59 641.21 561.19 652.44 560.49 662.27 559.18 670.24 556.51 678.25 545.17 679.19 536.41 672.85 529.75 667.26 522.19 660.96 513.89 654.71 505.28 649.84 496.1 646.45 486.5 645.15 476.76 646.8 466.73 651.05 456.5 657.78 446.25 666.92 435.86 677.43 425.38 688.36 414.91 699.08 404.59 707.94 394.44 714.15 384.26 717.69 374.18 717.67 364.2 714.14 354.13 707.77 344.07 698.62 334 687.42 323.8 675.17 313.52 662.37 303.17 649.82 292.68 638.3 282.1 628.11 271.49 619.58 260.83 613.11 250.22 608.42 239.77 605.32 229.49 603.99 219.55 603.63 210.11 603.82 201.13 604.74 192.85 605.45 185.43 605.58 175.77 604.89 162.2 596.6 157.99 588.72 155.63 582.29 153.7 574.77 152.03 566.35 149.94 557.37 147.73 547.73 145.25 537.62 141.97 527.2 138.31 516.51 134.32 505.7 129.67 494.78 124.95 483.85 120.41 473.02 115.88 462.18 112.02 451.48 109.12 440.99 106.92 430.5 106.01 420.23 106.48 410.21 107.81 400.19 110.31 390.62 113.72 381.51 117.36 372.37 121.4 363.64 125.55 355.29 129.17 346.87 132.53 338.76 135.54 330.93 137.71 322.94 139.56 315.13 141.19 307.44 142.31 299.48 143.58 291.52 145.21 283.5 146.95 275.1 149.45 266.54 152.84 257.76 156.83 248.56 161.89 239.13 167.98 229.5 174.79 219.56 182.53 209.54 191.05 199.55 200.06 189.59 209.6 179.95 219.5 170.83 229.51 162.2 239.66 154.42 249.81 147.71 259.79 141.89 269.66 137.32 279.4 134.09 288.83 131.74 298.14 130.6 307.34 130.53 316.26 130.81 325.15 131.67 334.08 132.83 342.8 133.47 351.66 133.83 360.71 133.66 369.64 132.32 378.86 130.22 388.4 127.38 397.9 123.48 407.79 119.23 418.09 114.95" stroke-dasharray="10 11" transform="rotate(0, 400, 400)"></path><path d="M423.46 125.97C433.49 121.64 443.57 118.13 453.65 115.71 463.73 114.18 473.76 114.17 483.68 115.75 493.49 118.48 503.07 122.69 512.27 128.15 521.21 134.33 529.58 141.28 537.22 148.72 544.39 156.08 550.63 163.43 555.78 170.54 562 179.96 567.83 195.07 567.99 200.96 567.78 205.65 569.47 214.75 573.86 219.94 579.35 223.61 586.78 227.87 596.3 232.76 607.91 237.9 621.21 243.71 635.7 250.14 650.76 256.87 665.55 264.17 679.08 271.96 690.65 280 699.28 288.44 704.21 297.18 705.5 306.08 702.67 315.2 695.97 324.44 686.7 333.76 675.25 343.14 662.84 352.51 651.48 361.9 641.85 371.23 635.14 380.44 632.66 389.66 634.17 398.52 639.31 407.04 647.88 415.55 658.28 423.74 669.24 431.63 680.14 439.57 689.15 447.29 695.33 454.84 698.58 462.57 697.97 470.26 693.54 478.02 685.93 486.11 675.29 494.44 662.41 503.11 648.17 512.3 633.25 521.97 618.45 532.19 604.39 542.97 591.58 554.31 580.33 566.14 570.9 578.32 563.23 590.74 557.15 603.15 552.77 615.32 549.5 626.95 546.99 637.66 542.2 659.24 530.56 664.85 523.5 658.09 518.14 652.71 511.9 646.95 504.86 641.47 497.56 637.47 489.59 634.97 481.06 634.46 472.4 636.67 463.29 641.23 453.82 647.98 444.31 656.87 434.51 666.94 424.46 677.34 414.41 687.53 404.36 696.05 394.33 702.15 384.3 705.88 374.25 706.36 364.19 703.61 354.09 698.2 343.93 690.11 333.72 679.94 323.45 668.57 313.09 656.42 302.68 644.18 292.24 632.62 281.77 622.02 271.35 612.75 261.02 605.24 250.85 599.31 240.95 594.9 231.36 592.19 222.21 590.58 213.67 589.72 205.64 589.81 198.38 589.99 191.99 589.94 183.81 589.61 172.62 583.93 169.16 578.02 167.1 573.09 165.32 567.1 163.65 560.19 161.47 552.76 159.08 544.57 156.38 535.8 152.86 526.69 148.97 517.18 144.76 507.4 139.96 497.46 135.15 487.38 130.55 477.27 126.02 467.11 122.19 456.99 119.33 446.96 117.2 436.94 116.34 427.04 116.85 417.3 118.22 407.56 120.74 398.2 124.19 389.2 127.89 380.18 132.01 371.48 136.27 363.07 140.04 354.58 143.58 346.32 146.77 338.25 149.13 330.01 151.13 321.86 152.85 313.76 153.99 305.4 155.16 296.98 156.57 288.46 157.95 279.62 159.94 270.61 162.69 261.42 165.93 251.92 170.14 242.26 175.34 232.5 181.23 222.59 188.07 212.74 195.74 203.07 203.98 193.59 212.87 184.55 222.23 176.17 231.87 168.37 241.76 161.5 251.8 155.72 261.82 150.79 271.83 147.08 281.78 144.6 291.55 142.88 301.22 142.22 310.79 142.47 320.14 142.93 329.43 143.82 338.7 144.88 347.79 145.36 356.94 145.49 366.19 145.09 375.33 143.56 384.65 141.3 394.18 138.36 403.67 134.45 413.42 130.21 423.45 125.97" stroke-dasharray="9 6" transform="rotate(4.04, 400, 400)"></path><path d="M425.49 137C435.16 132.72 444.72 129.21 454.13 126.73 463.52 125.05 472.69 124.81 481.58 126.06 490.35 128.41 498.72 132.18 506.57 137.21 514.17 142.98 521.09 149.6 527.23 156.79 532.96 164.04 537.78 171.39 541.61 178.65 546.23 188.55 550.62 205.11 551.24 211.76 552.39 217.11 558.86 226.75 566.15 231.75 573.42 235.1 582.44 238.9 593.2 243.2 605.56 247.63 619.1 252.63 633.27 258.2 647.5 263.98 661 270.32 672.91 277.14 682.72 284.17 689.57 291.63 692.9 299.44 692.94 307.4 689.29 315.64 682.25 324.08 673.11 332.59 662.16 341.25 650.52 349.99 639.96 358.75 631.04 367.54 624.77 376.33 622.34 385.12 623.52 393.69 627.99 402.03 635.67 410.39 645.14 418.55 655.31 426.55 665.7 434.63 674.65 442.61 681.27 450.57 685.47 458.72 686.26 466.95 683.58 475.35 677.94 484.07 669.28 493.08 658.24 502.46 645.57 512.26 631.78 522.5 617.61 533.19 603.66 544.26 590.41 555.7 578.27 567.4 567.51 579.2 558.23 590.97 550.4 602.46 544.13 613.46 539.07 623.7 534.92 632.82 527.01 649.51 514.84 650.23 508.76 643.36 504.27 638.33 498.98 633.19 492.93 628.52 486.68 625.38 479.74 623.73 472.17 623.94 464.48 626.65 456.25 631.45 447.54 638.19 438.78 646.82 429.61 656.43 420.06 666.31 410.5 676 400.82 684.16 391.05 690.14 381.28 694.02 371.41 694.94 361.46 692.9 351.51 688.4 341.46 681.33 331.34 672.2 321.22 661.77 311.04 650.37 300.86 638.62 290.73 627.21 280.66 616.43 270.74 606.65 261 598.3 251.52 591.32 242.43 585.72 233.72 581.7 225.55 578.82 218.03 576.8 207.96 575.56 192.72 574.17 187.55 572.58 183.58 569.92 177.91 559.36 175.27 551.42 172.93 545.39 170.3 538.58 167.32 531.11 163.56 523.32 159.43 515.02 155.02 506.33 150.1 497.46 145.21 488.33 140.58 479.03 136.09 469.66 132.32 460.21 129.52 450.74 127.46 441.26 126.67 431.79 127.21 422.37 128.61 412.95 131.16 403.8 134.61 394.91 138.35 385.99 142.53 377.3 146.87 368.8 150.79 360.23 154.5 351.79 157.88 343.45 160.45 334.96 162.65 326.5 164.52 318.01 165.75 309.31 166.91 300.52 168.18 291.62 169.3 282.47 170.89 273.18 173.09 263.77 175.65 254.17 179.07 244.5 183.39 234.85 188.34 225.2 194.22 215.73 200.95 206.59 208.28 197.76 216.33 189.49 224.96 181.97 233.97 175.08 243.37 169.15 253.02 164.3 262.8 160.25 272.69 157.33 282.6 155.53 292.46 154.37 302.27 154.1 312.01 154.58 321.62 155.14 331.16 155.99 340.65 156.92 350.01 157.2 359.37 157.1 368.73 156.47 378.02 154.74 387.39 152.34 396.83 149.32 406.26 145.4 415.81 141.19 425.48 137" stroke-dasharray="0 8" transform="rotate(8.08, 400, 400)"></path><path d="M423.89 148.02C433.12 143.81 442.11 140.32 450.79 137.78 459.44 135.98 467.74 135.51 475.62 136.44 483.39 138.41 490.64 141.75 497.28 146.32 503.71 151.65 509.44 157.88 514.38 164.76 519.04 171.8 522.87 179.08 525.87 186.38 528.66 193.29 530.72 199.94 532.15 206.24 534.31 214.46 539.15 228 543.39 233.68 547.82 236.96 553.48 240.27 560.57 243.73 569.31 246.99 579.52 250.56 591.08 254.5 603.75 258.45 617.1 262.88 630.6 267.79 643.72 272.82 655.75 278.35 665.98 284.36 674.03 290.51 679.21 297.1 681.09 304.07 680.03 311.16 675.72 318.57 668.48 326.26 659.54 334.01 649.14 341.98 638.26 350.13 628.49 358.28 620.25 366.58 614.41 374.99 612.04 383.39 612.9 391.71 616.76 399.92 623.58 408.16 632.13 416.33 641.5 424.47 651.31 432.69 660.06 440.94 666.93 449.28 671.87 457.78 673.85 466.47 672.73 475.37 668.92 484.55 662.21 494.03 653.06 503.86 642.13 513.98 629.76 524.45 616.61 535.23 603.21 546.21 590.04 557.37 577.5 568.56 565.9 579.63 555.44 590.43 546.2 600.71 538.28 610.35 531.53 619.05 525.76 626.53 513.94 638.65 499.25 635.44 493.46 628.72 489.38 624.16 484.64 619.71 479.24 615.87 473.73 613.58 467.56 612.71 460.76 613.59 453.88 616.73 446.4 621.73 438.39 628.42 430.34 636.75 421.8 645.92 412.8 655.28 403.8 664.47 394.58 672.27 385.19 678.12 375.82 682.1 366.3 683.41 356.65 682.01 347.04 678.37 337.32 672.29 327.55 664.18 317.83 654.74 308.1 644.17 298.42 633.04 288.88 621.96 279.47 611.21 270.29 601.15 261.38 592.2 252.81 584.38 244.71 577.75 237.02 572.54 229.92 568.43 223.51 565.24 208.77 560.73 195.03 555.11 192.45 551.53 189.68 546.77 182.78 532.72 178.05 523.61 174.03 517.04 169.68 509.89 165.09 502.27 160.07 494.48 155.14 486.31 150.52 477.87 146.09 469.35 142.41 460.62 139.69 451.75 137.73 442.87 137 433.88 137.58 424.82 139 415.76 141.54 406.85 144.99 398.08 148.74 389.3 152.95 380.64 157.36 372.07 161.4 363.45 165.28 354.87 168.85 346.32 171.65 337.65 174.08 328.95 176.14 320.19 177.53 311.27 178.77 302.25 180 293.14 180.97 283.87 182.26 274.51 184.03 265.1 186.01 255.62 188.73 246.18 192.24 236.87 196.27 227.69 201.18 218.82 206.93 210.38 213.26 202.34 220.35 194.96 228.08 188.37 236.25 182.43 244.92 177.45 253.95 173.5 263.22 170.28 272.7 168.08 282.3 166.88 291.97 166.16 301.66 166.2 311.33 166.84 320.96 167.42 330.55 168.18 340.06 168.93 349.51 168.99 358.92 168.65 368.26 167.78 377.57 165.87 386.86 163.34 396.13 160.25 405.39 156.32 414.65 152.16 423.88 148.03" stroke-dasharray="8 11" transform="rotate(12.12, 400, 400)"></path><path d="M418.9 159.05C427.63 154.91 436 151.45 443.96 148.87 451.9 146.95 459.38 146.27 466.35 146.9 473.24 148.49 479.55 151.4 485.23 155.5 490.76 160.37 495.62 166.16 499.77 172.66 503.77 179.43 507.09 186.53 509.77 193.77 512.44 200.77 514.64 207.62 516.5 214.21 518.69 220.24 520.87 225.92 523.28 231.24 526.52 235.93 530.4 240.34 535.16 244.53 541.2 248.22 548.42 251.85 556.9 255.51 566.72 258.88 577.68 262.44 589.58 266.25 602.14 269.97 614.93 274.05 627.45 278.52 639.25 283.02 649.71 287.96 658.22 293.34 664.59 298.79 668.21 304.66 668.81 310.94 666.83 317.27 662 323.98 654.68 331.01 646.02 338.08 636.2 345.43 626.07 353.04 617.07 360.66 609.47 368.51 604.04 376.57 601.74 384.63 602.32 392.72 605.6 400.82 611.61 408.94 619.28 417.12 627.82 425.36 636.99 433.68 645.43 442.13 652.39 450.73 657.85 459.47 660.8 468.44 661.03 477.64 658.88 487.04 654.02 496.72 646.75 506.67 637.65 516.79 626.91 527.15 615.06 537.66 602.62 548.19 589.97 558.71 577.54 569.06 565.62 579.11 554.45 588.69 544.22 597.58 535.03 605.74 526.85 612.86 519.62 618.72 510.65 625.09 496.66 628.4 490.66 625.53 485.07 620.58 472.57 608.41 465.19 603.55 460.06 602.06 454.38 601.94 448.12 603.4 441.81 606.91 434.94 612.05 427.53 618.65 420.1 626.68 412.15 635.4 403.72 644.25 395.3 652.95 386.61 660.39 377.73 666.08 368.88 670.12 359.85 671.77 350.71 670.96 341.62 668.11 332.45 662.97 323.25 655.87 314.16 647.43 305.11 637.76 296.18 627.35 287.44 616.77 278.9 606.24 270.66 596.13 262.73 586.82 255.21 578.39 248.21 570.94 241.6 564.71 235.6 559.49 230.27 555.16 218.21 547.73 206.82 540.17 204.35 536.93 201.41 532.95 193.71 521.33 188.52 513.67 184.25 508.13 179.69 502 174.96 495.35 169.88 488.55 164.95 481.31 160.38 473.69 156.04 466 152.46 458.01 149.85 449.77 147.99 441.5 147.33 433.02 147.94 424.36 149.38 415.71 151.91 407.07 155.32 398.49 159.07 389.89 163.28 381.31 167.73 372.75 171.88 364.15 175.9 355.52 179.65 346.86 182.7 338.13 185.37 329.32 187.67 320.45 189.27 311.48 190.65 302.43 191.94 293.32 192.87 284.14 193.99 274.94 195.45 265.77 196.98 256.65 199.1 247.66 201.89 238.91 205.09 230.39 209.09 222.27 213.86 214.68 219.16 207.55 225.22 201.11 231.95 195.5 239.15 190.51 246.9 186.44 255.1 183.35 263.62 180.87 272.44 179.3 281.48 178.6 290.67 178.24 299.97 178.49 309.31 179.19 318.69 179.73 328.07 180.36 337.38 180.88 346.7 180.71 355.95 180.12 365.11 179.02 374.27 176.94 383.34 174.29 392.31 171.14 401.28 167.23 410.15 163.12 418.89 159.06" stroke-dasharray="1 9" transform="rotate(16.16, 400, 400)"></path><path d="M411.22 170.08C419.4 166.02 427.16 162.6 434.47 159.99 441.74 157.97 448.51 157.1 454.76 157.45 460.94 158.68 466.55 161.15 471.58 164.77 476.52 169.16 480.88 174.48 484.66 180.54 488.4 186.96 491.65 193.8 494.48 200.88 497.46 207.85 500.21 214.78 502.88 221.56 506.02 227.91 509.39 233.97 513.17 239.73 517.82 244.94 523.2 249.86 529.48 254.53 536.89 258.71 545.34 262.76 554.82 266.75 565.29 270.4 576.56 274.13 588.36 278.01 600.42 281.71 612.33 285.67 623.63 289.92 633.96 294.13 642.79 298.7 649.62 303.64 654.4 308.6 656.61 313.94 656.09 319.68 653.35 325.44 648.15 331.57 640.86 338.06 632.55 344.56 623.33 351.39 613.95 358.54 605.68 365.69 598.71 373.15 593.67 380.89 591.44 388.64 591.77 396.5 594.52 404.47 599.77 412.46 606.58 420.59 614.3 428.85 622.78 437.18 630.8 445.69 637.7 454.39 643.49 463.19 647.19 472.22 648.55 481.47 647.86 490.83 644.69 500.41 639.23 510.16 631.98 519.96 622.97 529.86 612.66 539.76 601.49 549.53 589.76 559.12 577.87 568.37 566.11 577.19 554.75 585.41 544 592.82 533.97 599.47 524.75 605.04 516.34 609.37 508.79 612.71 501.96 614.68 495.74 615.25 487.63 614.11 473.34 605.78 466.44 600.05 459.61 595.22 444.34 591.11 435.65 593.37 429.69 597.18 423.25 602.41 416.33 608.88 409.39 616.59 401.98 624.88 394.12 633.23 386.26 641.44 378.16 648.51 369.88 654.02 361.62 658.1 353.22 660.04 344.74 659.75 336.32 657.62 327.87 653.37 319.44 647.25 311.15 639.8 302.96 631.08 294.95 621.49 287.15 611.54 279.62 601.42 272.45 591.45 265.57 582.02 259.15 573.21 253.25 565.16 247.72 558.12 242.76 551.95 238.43 546.61 228.61 536.14 218.81 525.7 216.25 522.32 212.98 518.62 204.34 508.46 198.7 501.85 194.2 497.11 189.47 491.8 184.63 485.97 179.53 480.02 174.64 473.59 170.14 466.73 165.93 459.81 162.49 452.52 160 444.89 158.26 437.23 157.67 429.28 158.31 421.06 159.75 412.83 162.24 404.54 165.61 396.2 169.32 387.85 173.52 379.45 177.99 370.99 182.21 362.52 186.35 353.97 190.28 345.36 193.56 336.71 196.48 327.98 199.04 319.19 200.9 310.37 202.5 301.49 203.93 292.61 204.93 283.75 206 274.93 207.27 266.23 208.49 257.67 210.16 249.33 212.36 241.32 214.84 233.61 218.01 226.38 221.88 219.73 226.18 213.56 231.21 208.1 236.91 203.45 243.05 199.38 249.78 196.17 257 193.84 264.58 192.01 272.54 190.97 280.79 190.66 289.26 190.55 297.92 190.91 306.68 191.61 315.56 192.05 324.48 192.49 333.37 192.77 342.31 192.35 351.2 191.51 359.99 190.18 368.81 187.94 377.51 185.19 386.05 181.99 394.62 178.11 403.02 174.07 411.2 170.08" stroke-dasharray="11 2" transform="rotate(20.200000000000003, 400, 400)"></path><path d="M401.94 181.11C409.57 177.15 416.76 173.77 423.49 171.15 433.3 168.53 450.42 169.99 457.7 174.16 462.37 178.05 466.57 182.87 470.36 188.45 474.22 194.45 477.77 200.94 481.11 207.77 484.71 214.59 488.29 221.49 491.99 228.34 496.23 234.88 500.84 241.23 505.99 247.35 511.95 252.99 518.64 258.38 526.15 263.52 534.59 268.21 543.86 272.72 553.9 277.13 564.59 281.17 575.73 285.2 587.05 289.3 598.28 293.17 609.06 297.19 618.95 301.43 627.74 305.56 634.94 309.96 640.16 314.68 643.96 321.85 636.93 337.94 627.05 346.87 619.14 352.93 610.55 359.36 601.91 366.12 594.35 372.89 587.97 379.99 583.31 387.45 581.15 394.9 581.26 402.53 583.52 410.32 588.05 418.13 594.04 426.12 600.95 434.29 608.7 442.51 616.22 450.92 622.93 459.52 628.86 468.17 633.1 477.03 635.36 486.04 635.91 495.1 634.25 504.28 630.47 513.53 625 522.72 617.77 531.88 609.11 540.89 599.44 549.66 588.94 558.12 577.98 566.09 566.83 573.57 555.74 580.36 544.95 586.28 534.57 591.47 524.74 595.61 515.56 598.58 507.02 600.7 499.12 601.61 491.82 601.33 485.12 600.38 478.88 598.43 472.97 595.67 467.49 592.77 462.16 589.51 456.88 586.17 449.27 582.4 433.37 580.47 424.77 583.48 418.95 587.53 412.76 592.8 406.2 599.12 399.63 606.5 392.68 614.34 385.35 622.2 378.02 629.94 370.52 636.65 362.88 641.96 355.28 646.04 347.58 648.2 339.86 648.37 332.21 646.91 324.58 643.48 317.05 638.3 309.65 631.84 302.42 624.08 295.42 615.37 288.63 606.17 282.15 596.6 276.07 586.97 270.25 577.64 264.88 568.69 260.03 560.28 255.46 552.66 251.42 545.74 247.94 539.55 243.28 531.91 236.35 520.47 233.69 516.02 230.84 512.3 224.28 504.51 220.08 499.92 216.56 496.74 212.7 493.09 208.55 488.95 203.86 484.74 199.01 480.02 194.11 474.81 189.03 469.52 184.21 463.75 179.83 457.55 175.78 451.29 172.49 444.62 170.15 437.56 168.52 430.49 168.01 423.05 168.67 415.29 170.11 407.52 172.56 399.61 175.86 391.59 179.52 383.57 183.67 375.44 188.12 367.22 192.39 359 196.63 350.68 200.7 342.29 204.2 333.89 207.38 325.42 210.2 316.92 212.36 308.45 214.22 299.97 215.87 291.53 217.02 283.19 218.15 274.96 219.37 266.93 220.42 259.1 221.79 251.57 223.56 244.44 225.47 237.65 227.95 231.37 231.02 225.71 234.43 220.51 238.49 216.01 243.18 212.28 248.26 209.06 253.93 206.61 260.12 204.94 266.65 203.65 273.61 203.02 280.93 202.98 288.49 203.03 296.31 203.43 304.29 204.04 312.44 204.33 320.68 204.55 328.94 204.57 337.3 203.89 345.63 202.81 353.88 201.26 362.17 198.88 370.36 196.04 378.39 192.82 386.44 188.98 394.3 185.01 401.93 181.11" stroke-dasharray="2 3" transform="rotate(24.24, 400, 400)"></path><path d="M392.39 192.13C399.47 188.28 406.15 184.96 412.42 182.34 421.59 179.58 437.82 180.18 444.95 183.68 449.62 187.07 453.97 191.36 458.06 196.43 462.3 201.95 466.41 208.03 470.48 214.5 474.88 221.07 479.42 227.82 484.21 234.62 489.55 241.23 495.33 247.74 501.66 254.09 508.7 260.07 516.41 265.85 524.79 271.41 533.85 276.56 543.52 281.54 553.68 286.38 564.17 290.87 574.8 295.29 585.3 299.71 595.44 303.87 604.89 308.12 613.3 312.49 623.33 318.91 631.82 332.78 629.54 340.37 625.76 345.49 620.23 350.94 613.27 356.72 605.81 362.48 597.85 368.59 589.94 375.05 583.05 381.5 577.24 388.3 572.94 395.47 570.87 402.63 570.78 410 572.59 417.55 576.45 425.11 581.66 432.87 587.77 440.81 594.77 448.76 601.72 456.9 608.12 465.19 614.04 473.5 618.61 481.94 621.55 490.47 623.11 498.98 622.75 507.51 620.48 515.99 616.68 524.35 611.17 532.54 604.21 540.46 596.16 548.09 587.1 555.28 577.36 561.9 567.2 568.03 556.8 573.41 546.41 577.93 536.16 581.77 526.21 584.64 516.67 586.46 507.57 587.59 498.96 587.69 490.87 586.82 483.27 585.49 476.11 583.41 469.33 580.75 462.95 578.14 456.82 575.36 450.86 572.67 442.32 569.98 425.36 570.08 416.63 573.74 410.79 577.96 404.72 583.22 398.4 589.36 392.09 596.4 385.5 603.79 378.66 611.17 371.82 618.44 364.88 624.78 357.91 629.89 350.95 633.93 343.99 636.28 337.07 636.85 330.22 635.97 323.46 633.31 316.86 629.02 310.37 623.51 304.11 616.73 298.13 608.94 292.32 600.56 286.85 591.68 281.79 582.56 276.93 573.52 272.5 564.65 268.55 556.13 264.79 548.16 261.49 540.74 258.66 533.89 254.75 525.02 248.53 510.92 245.83 505.25 242.71 500.46 235.2 491.33 230.45 486.5 226.6 483.29 222.46 479.74 218.07 475.8 213.23 471.87 208.3 467.51 203.39 462.71 198.39 457.88 193.69 452.61 189.46 446.92 185.58 441.19 182.48 435.05 180.28 428.51 178.78 421.96 178.35 415.02 179.04 407.73 180.46 400.43 182.86 392.95 186.07 385.33 189.65 377.72 193.74 369.96 198.14 362.11 202.43 354.26 206.73 346.32 210.92 338.32 214.61 330.34 218.03 322.32 221.12 314.31 223.58 306.36 225.75 298.46 227.66 290.67 229.05 283.02 230.35 275.55 231.64 268.34 232.66 261.36 233.88 254.74 235.37 248.57 237.86 240.09 245.53 226.7 250.92 222.01 257.33 218.63 273.23 215.57 282.49 215.53 289.03 215.64 295.89 215.98 302.96 216.45 310.22 216.54 317.62 216.51 325.11 216.25 332.71 215.32 340.33 214 347.91 212.26 355.55 209.75 363.11 206.84 370.54 203.6 378 199.82 385.29 195.94 392.38 192.14" stroke-dasharray="6 1" transform="rotate(28.28, 400, 400)"></path><path d="M383.91 203.16C390.49 199.42 396.74 196.17 402.66 193.57 411.37 190.69 427.26 190.5 434.55 193.35 439.41 196.23 444.11 200 448.7 204.53 453.48 209.53 458.27 215.12 463.16 221.16 468.39 227.39 473.85 233.87 479.65 240.49 485.94 247.03 492.67 253.56 499.91 260.02 507.71 266.21 516.04 272.26 524.88 278.14 534.15 283.69 543.79 289.07 553.65 294.32 563.57 299.24 573.37 304.07 582.78 308.85 591.65 313.38 599.67 317.93 606.55 322.54 614.31 329.25 619.11 343.31 615.79 350.82 611.72 355.85 606.2 361.15 599.54 366.75 592.57 372.32 585.25 378.21 578.04 384.41 571.8 390.61 566.52 397.14 562.58 404.02 560.59 410.89 560.33 417.96 561.73 425.2 564.98 432.44 569.45 439.85 574.78 447.41 581.03 454.97 587.36 462.67 593.36 470.46 599.11 478.24 603.82 486.07 607.23 493.9 609.57 501.66 610.26 509.35 609.3 516.88 607 524.24 603.11 531.33 597.8 538.06 591.41 544.46 583.92 550.37 575.6 555.66 566.69 560.48 557.32 564.56 547.73 567.82 538.03 570.51 528.39 572.32 518.95 573.22 509.73 573.61 500.84 573.16 492.34 571.93 484.17 570.45 476.39 568.43 468.98 566.03 461.89 563.84 455.09 561.63 448.54 559.6 442.21 558.34 436.03 557.63 429.93 557.66 423.97 558.86 418.01 561 412.01 564.12 406.06 568.46 400.02 573.67 393.86 579.6 387.72 586.28 381.43 593.24 375.01 600.15 368.58 606.95 362.17 612.93 355.82 617.81 349.48 621.79 343.22 624.27 337.08 625.18 330.99 624.83 325.06 622.86 319.34 619.39 313.72 614.8 308.36 608.97 303.31 602.12 298.38 594.64 293.8 586.53 289.61 578.05 285.55 569.49 281.89 560.92 278.64 552.5 275.49 544.43 272.71 536.74 270.3 529.48 267.88 522.79 265.74 516.59 263.82 510.85 260.73 503.31 254.23 490.55 250.41 484.91 245.63 479.73 234 469.09 227.24 463.31 222.32 459.43 217.36 455.21 212.5 450.64 207.61 446.07 203.07 441.13 199.03 435.81 195.36 430.47 192.45 424.75 190.42 418.66 189.05 412.56 188.7 406.09 189.41 399.26 190.81 392.43 193.13 385.42 196.24 378.27 199.72 371.12 203.71 363.84 208.04 356.46 212.31 349.11 216.64 341.68 220.92 334.22 224.77 326.8 228.39 319.39 231.74 312.02 234.51 304.75 236.99 297.58 239.2 290.58 240.89 283.74 242.43 277.14 243.89 270.84 245.62 261.96 249.7 246.89 252.48 240.95 255.82 236.16 265.21 230.1 271.28 228.74 278.19 228.09 294.37 228.4 303.41 228.78 309.7 228.64 316.19 228.34 322.81 227.8 329.55 226.62 336.37 225.08 343.21 223.16 350.11 220.55 356.99 217.59 363.79 214.35 370.61 210.64 377.33 206.86 383.9 203.17" stroke-dasharray="1 9" transform="rotate(32.32, 400, 400)"></path><path d="M377.73 214.19C383.84 210.57 389.73 207.41 395.41 204.83 403.82 201.87 419.74 200.96 427.39 203.19 432.55 205.58 437.68 208.81 442.82 212.79 448.17 217.24 453.63 222.29 459.28 227.84 465.24 233.62 471.49 239.73 478.07 246.06 485.05 252.4 492.43 258.82 500.22 265.24 508.4 271.5 516.96 277.68 525.83 283.75 534.91 289.57 544.13 295.27 553.33 300.84 562.38 306.14 571.09 311.34 579.24 316.47 586.73 321.36 593.28 326.24 598.65 331.12 604.29 338.23 605.92 352.74 601.81 360.31 597.58 365.34 592.18 370.6 585.88 376.09 579.42 381.55 572.74 387.27 566.21 393.27 560.59 399.25 555.82 405.53 552.21 412.1 550.32 418.67 549.91 425.39 550.95 432.24 553.62 439.09 557.4 446.06 561.99 453.12 567.49 460.17 573.16 467.28 578.67 474.42 584.14 481.52 588.83 488.59 592.5 495.57 595.38 502.45 596.91 509.17 597.01 515.65 596.01 521.93 593.57 527.88 589.8 533.4 585.02 538.6 579.13 543.28 572.32 547.34 564.84 550.98 556.75 553.93 548.24 556.13 539.46 557.88 530.52 558.88 521.59 559.11 512.68 559 503.92 558.23 495.41 556.88 487.08 555.44 479.04 553.65 471.3 551.64 463.79 549.95 456.56 548.35 449.59 547.01 442.81 546.43 436.23 546.4 429.81 547.05 423.52 548.75 417.32 551.27 411.2 554.63 405.13 559.03 399.08 564.14 393.04 569.83 387.02 576.16 380.97 582.68 374.9 589.12 368.84 595.47 362.89 601.09 357.09 605.73 348.48 610.9 332.21 612.81 324.68 609.43 319.8 605.69 315.2 600.78 310.92 594.88 306.71 588.31 302.84 581.06 299.32 573.33 295.86 565.39 292.75 557.28 289.97 549.17 287.2 541.24 284.73 533.52 282.51 526.08 280.2 519.06 278.07 512.4 276.06 506.13 272.69 497.61 265.22 482.79 260.82 476.2 255.49 470.16 243.04 458.35 236.07 452.28 231.12 448.26 226.2 444.02 221.44 439.52 216.72 435.05 212.38 430.28 208.55 425.21 205.11 420.14 202.41 414.74 200.55 409.02 199.32 403.3 199.05 397.25 199.77 390.88 201.14 384.52 203.39 377.99 206.38 371.35 209.74 364.71 213.61 357.97 217.83 351.17 222.04 344.4 226.37 337.59 230.68 330.78 234.65 324.04 238.45 317.34 242.02 310.74 245.08 304.25 247.87 297.9 250.41 291.77 253.35 282.97 258 267.31 260.08 260.7 264.61 250.79 274.7 242.16 279.59 241.27 285.17 240.83 298.53 240.94 306.16 240.99 311.49 240.6 317.06 240.02 322.82 239.21 328.67 237.79 334.67 236.05 340.75 233.97 346.88 231.27 353.06 228.28 359.24 225.07 365.44 221.44 371.61 217.76 377.72 214.19" stroke-dasharray="5 10" transform="rotate(36.36, 400, 400)"></path><path d="M374.71 225.22C380.42 221.73 386.02 218.67 391.52 216.13 397.02 213.88 402.44 212.35 407.79 211.56 418.63 211.56 429.46 214.9 440.57 221.25 452.41 229.43 465.13 239.76 478.96 251.46 493.91 263.51 510.07 275.97 526.98 288.34 543.97 300.04 560.27 311.39 574.44 322.39 585.8 332.6 592.78 342.74 594.3 352.98 591.55 362.77 583.79 373.04 572.3 383.92 566.38 389.31 560.33 394.91 554.46 400.71 549.43 406.5 545.14 412.51 541.85 418.76 540.04 425.01 539.52 431.34 540.23 437.74 542.39 444.13 545.52 450.58 549.41 457.05 559.57 469.92 569.62 482.69 577.49 494.92 583.18 506.68 584.13 517.36 580.23 526.41 572.76 534.33 561.39 540.02 547.39 543.12 531.86 544.96 515.46 544.42 499.15 541.9 483.06 539.59 467.72 536.91 453.35 534.94 439.5 535.84 426.4 539.15 413.97 545.25 407.84 549.65 401.81 554.63 395.88 560.06 389.97 566.02 384.13 572.1 378.37 578.09 372.61 584 367.06 589.25 361.72 593.65 356.39 597.41 351.28 600.04 346.41 601.45 336.7 601.43 328.06 596.4 320.61 587.16 313.25 575.3 307.08 561.12 302.06 545.94 296.76 530.89 292.15 516.36 287.92 502.88 282.57 490.82 276.88 479.87 270.54 469.81 262.52 460.87 253.76 452.18 244.56 443.35 234.66 434.96 225.5 425.93 218.04 416.06 213.61 408.57 209.51 392.33 210.14 383.57 211.47 377.64 213.63 371.61 216.49 365.5 219.71 359.41 223.43 353.25 227.52 347.08 235.67 334.83 244.05 322.69 251.94 311.02 258.08 299.79 263.3 289.43 267.76 280.36 272.11 268.79 281.98 255.76 289.58 254.05 295.47 253.29 302.83 253.14 311.45 253.04 320.47 251.24 330.5 248.52 341.19 244.67 346.59 241.92 352.11 238.92 357.71 235.75 363.32 232.21 368.99 228.66 374.7 225.22" stroke-dasharray="10 10" transform="rotate(40.400000000000006, 400, 400)"></path><path d="M375.28 236.24C386 229.62 396.74 224.93 407.52 222.69 418.49 222.17 429.81 224.68 441.64 229.96 454.05 236.98 467.35 246.15 481.57 256.82 496.43 268.08 512.01 279.99 527.7 292.06 542.88 303.78 556.81 315.34 568.23 326.61 576.88 337.29 581.4 347.84 581.1 358.35 577.36 368.47 569.55 378.86 558.82 389.61 548.38 400.24 538.63 411.44 531.48 423.22 529.43 435.01 531.57 446.85 537.04 458.52 545.77 470.08 554.77 481.24 562.3 491.61 568.49 501.52 570.86 510.19 569.13 517.17 564.4 523.25 555.94 527.29 544.71 529.12 531.75 530.16 517.4 529.36 502.59 527.19 487.56 525.62 472.82 524.07 458.77 523.4 445.01 525.4 431.93 529.53 419.62 535.97 407.48 545.31 395.88 556.09 384.91 567.06 373.93 577.78 363.99 585.52 355.13 589.4 346.25 590.16 338.45 586.48 331.78 578.93 325.02 568.89 319.24 556.4 314.33 542.57 308.94 528.43 303.96 514.31 299.09 500.79 293.06 488.25 286.59 476.57 279.51 465.72 271 455.82 261.96 446.32 252.74 436.96 243.14 428.06 234.45 418.83 227.51 409.13 222.11 399.51 219.62 389.2 220.5 378.18 223.59 367.16 229.42 355.99 237.1 344.91 245.05 333.96 253.4 323.31 261.48 313.3 268.1 303.68 273.94 295.02 279.05 287.66 284.31 278.34 294.3 268.29 300.94 266.97 305.79 266.08 311.91 265.53 319.22 264.87 326.76 262.57 335.37 259.41 344.82 255.27 354.36 249.28 364.56 242.71 375.27 236.25" stroke-dasharray="7 9" transform="rotate(44.44, 400, 400)"></path><path d="M379.37 247.27C389.48 240.94 399.94 236.35 410.73 233.93 421.68 232.96 433.2 234.69 445.32 238.96 457.83 244.82 471.12 252.78 485.01 262.29 499.13 272.55 513.48 283.66 527.4 295.14 540.42 306.55 551.8 317.98 560.52 329.23 566.68 340.11 569.1 350.85 567.37 361.46 562.98 371.78 555.34 382.19 545.46 392.74 536.14 403.19 527.53 413.94 521.11 424.97 519.07 436 520.54 446.79 524.88 457.13 532.24 467.37 540.11 476.96 547.07 485.58 555.03 497.25 551.34 512.05 539.9 514.52 529.63 515.19 517.66 514.52 504.8 512.96 491.4 512.28 477.88 511.87 464.68 512.41 451.56 515.36 438.95 520.13 427.04 526.78 415.25 535.81 404.06 545.91 393.59 556.04 383.12 565.94 373.77 573.25 365.52 577.25 357.2 578.65 349.91 576.16 343.6 570.17 337.07 561.89 331.32 551.15 326.18 538.86 320.43 525.95 314.87 512.63 309.25 499.52 302.53 486.97 295.35 475 287.66 463.72 278.85 453.17 269.71 443.08 260.64 433.3 251.47 423.93 243.33 414.52 236.97 404.93 232.09 395.45 229.93 385.58 230.87 375.34 233.82 365.1 239.31 354.98 246.59 345.18 254.26 335.47 262.47 326.26 270.62 317.8 277.61 309.66 283.99 302.52 289.71 296.63 296.01 289.13 306.92 281.15 313.18 279.87 317.44 278.71 322.74 277.69 329.11 276.45 335.55 273.67 343.04 270.12 351.48 265.77 359.94 259.82 369.27 253.46 379.37 247.27" stroke-dasharray="3 7" transform="rotate(48.48, 400, 400)"></path><path d="M386.39 258.3C395.94 252.29 406.05 247.82 416.65 245.27 427.36 243.92 438.71 244.96 450.61 248.28 462.72 253.02 475.39 259.75 488.33 268.03 501.16 277.13 513.79 287.21 525.57 297.86 536.24 308.64 545.08 319.61 551.31 330.54 555.28 341.28 555.98 351.93 553.2 362.41 548.47 372.71 541.18 382.98 532.23 393.19 524.01 403.34 516.46 413.57 510.75 423.79 508.74 434.02 509.62 443.74 512.95 452.82 519 461.79 525.69 469.94 531.9 477.03 540.27 492.25 520.41 500.26 504.98 499.39 493.61 499.65 481.73 500.34 469.84 501.97 457.84 505.71 446.12 510.95 434.91 517.68 423.75 526.32 413.13 535.72 403.18 545.01 393.24 554.11 384.35 560.97 376.48 564.99 368.52 566.9 361.45 565.44 355.17 560.87 348.62 554.26 342.62 545.27 337.01 534.63 330.77 523.16 324.56 510.98 318.18 498.67 310.85 486.56 303.13 474.75 295.02 463.44 286.09 452.63 277.06 442.25 268.31 432.26 259.68 422.61 252.18 413.1 246.43 403.66 242.09 394.33 240.25 384.89 241.23 375.39 244.02 365.88 249.16 356.74 255.99 348.11 263.3 339.55 271.28 331.63 279.36 324.54 286.58 317.68 293.38 311.8 299.64 307.07 306.98 300.94 319.36 294.16 325.72 292.62 329.8 291.09 334.69 289.55 340.48 287.74 346.2 284.53 352.91 280.66 360.58 276.16 368.23 270.31 376.84 264.19 386.39 258.3" stroke-dasharray="0 1" transform="rotate(52.52, 400, 400)"></path><path d="M395.34 269.32C404.36 263.65 413.99 259.35 424.13 256.72 434.35 255.07 445.14 255.5 456.34 257.94 467.58 261.62 479.12 267.13 490.6 274.15 501.74 281.99 512.34 290.9 521.82 300.48 530.16 310.36 536.62 320.58 540.63 330.88 542.8 341.15 542.17 351.4 538.71 361.5 533.9 371.51 527.13 381.42 519.15 391.15 511.99 400.85 505.43 410.45 500.38 419.83 498.43 429.21 498.82 437.92 501.23 445.83 506.06 453.66 511.58 460.57 516.92 466.42 526.38 478.89 514.59 486.28 502.57 486.62 493.39 487.82 483.42 489.52 473.13 492.08 462.62 496.42 452.1 501.97 441.85 508.64 431.6 516.82 421.71 525.51 412.33 533.98 402.94 542.3 394.45 548.68 386.81 552.65 379.07 554.94 372.03 554.33 365.59 551.03 358.85 545.95 352.47 538.65 346.3 529.69 339.56 519.81 332.74 509.02 325.73 497.83 317.97 486.56 309.9 475.33 301.61 464.4 292.79 453.74 284.06 443.42 275.79 433.51 267.83 423.83 261.02 414.39 255.91 405.21 252.11 396.11 250.59 387.13 251.6 378.31 254.22 369.49 258.97 361.24 265.33 353.65 272.2 346.09 279.84 339.26 287.73 333.3 295.02 327.46 302.08 322.55 308.74 318.66 317.01 313.44 331.11 307.08 337.93 305.06 342.14 303.09 346.96 301.04 352.49 298.7 357.86 295.13 364.09 291.02 371.22 286.43 378.3 280.74 386.33 274.89 395.34 269.32" stroke-dasharray="7 0" transform="rotate(56.56, 400, 400)"></path><path d="M404.96 280.35C413.41 275.04 422.42 270.94 431.86 268.28 441.32 266.4 451.2 266.3 461.29 267.97 471.3 270.67 481.33 275.03 491.02 280.79 500.26 287.34 508.73 294.96 515.93 303.34 522.08 312.09 526.44 321.3 528.62 330.71 529.36 340.21 527.8 349.77 524 359.22 519.34 368.67 513.21 377.99 506.22 387.07 500.08 396.16 494.45 405.02 490.02 413.54 488.14 422.07 488.12 429.82 489.73 436.72 493.43 443.56 497.81 449.47 502.21 454.38 511.75 465.14 506.17 473.16 497.28 474.77 490.23 476.84 482.24 479.41 473.67 482.7 464.83 487.47 455.73 493.16 446.63 499.67 437.49 507.33 428.46 515.28 419.71 522.95 410.96 530.49 402.87 536.37 395.39 540.23 387.83 542.77 380.75 542.87 374.07 540.65 367.12 536.95 360.36 531.22 353.69 523.91 346.54 515.68 339.28 506.42 331.86 496.57 323.88 486.47 315.72 476.18 307.51 465.99 299.03 455.89 290.79 446 283.15 436.45 275.93 427.04 269.88 417.92 265.42 409.13 262.16 400.4 260.93 391.92 261.97 383.77 264.4 375.62 268.76 368.16 274.59 361.43 280.98 354.72 288.16 348.77 295.73 343.66 302.93 338.58 310.07 334.35 316.96 330.99 323.05 327.58 328.87 324.93 334.46 322.95 341.74 319.7 356.22 313.38 364.21 309.31 369.5 305.46 375.49 301.19 382.26 296.6 388.95 291.11 396.51 285.58 404.96 280.35" stroke-dasharray="8 4" transform="rotate(60.599999999999994, 400, 400)"></path><path d="M413.87 291.38C421.71 286.44 429.96 282.57 438.47 279.94 446.97 277.91 455.67 277.39 464.37 278.38 472.91 280.21 481.23 283.51 489.01 288.07 496.31 293.34 502.71 299.64 507.84 306.72 512.07 314.21 514.69 322.24 515.45 330.55 515.16 339.03 513.04 347.65 509.19 356.22 504.86 364.85 499.46 373.38 493.45 381.67 488.26 389.97 483.5 398.02 479.65 405.68 477.87 413.34 477.52 420.22 478.45 426.27 482.8 434.87 493.62 447.67 497.56 451.94 497.51 458.36 480.88 468.37 470.93 473.83 463.8 478.83 456.18 484.51 448.31 490.74 440.39 497.82 432.34 505.04 424.3 511.93 416.26 518.71 408.6 524.07 401.33 527.75 393.98 530.42 386.91 531.06 380.05 529.75 372.98 527.24 365.97 522.95 358.98 517.19 351.63 510.58 344.16 502.91 336.6 494.55 328.7 485.82 320.72 476.74 312.85 467.58 304.91 458.38 297.33 449.25 290.45 440.36 284.05 431.53 278.78 422.95 274.98 414.72 272.24 406.52 271.3 398.63 272.33 391.13 274.57 383.64 278.52 376.88 283.8 370.86 289.64 364.83 296.29 359.54 303.41 355.02 310.35 350.47 317.38 346.66 324.3 343.55 330.66 340.31 336.83 337.65 342.81 335.48 348.19 332.94 353.54 330.66 358.92 328.5 363.89 325.67 369.12 322.71 374.71 319.54 380.08 315.51 385.98 311.18 392.48 306.66 398.9 301.43 406.02 296.24 413.87 291.38" stroke-dasharray="9 2" transform="rotate(64.64, 400, 400)"></path><path d="M420.8 302.41C427.98 297.87 435.34 294.27 442.77 291.71 450.17 289.6 457.55 288.76 464.72 289.19 471.71 290.27 478.3 292.61 484.22 296.07 489.71 300.13 494.26 305.15 497.62 310.92 500.29 317.09 501.57 323.82 501.33 330.9 500.4 338.19 498.04 345.69 494.38 353.22 490.54 360.83 485.91 368.4 480.85 375.77 476.57 383.17 472.59 390.34 469.28 397.15 467.32 407 470.36 423.07 474.02 429.28 481.38 438.99 482.44 450.25 478.26 454.13 474.69 457.51 470.14 461.25 464.79 465.42 459.22 470.48 453.03 476 446.4 481.84 439.71 488.31 432.68 494.78 425.43 500.9 418.18 506.93 411.05 511.76 404.08 515.21 397.07 517.9 390.13 518.94 383.27 518.36 376.27 516.85 369.24 513.8 362.18 509.45 354.9 504.37 347.53 498.27 340.14 491.42 332.58 484.18 325.07 476.48 317.77 468.56 310.56 460.51 303.8 452.4 297.76 444.42 292.23 436.43 287.75 428.61 284.59 421.09 282.35 413.58 281.67 406.36 282.7 399.53 284.73 392.7 288.26 386.56 292.97 381.12 298.21 375.65 304.26 370.85 310.8 366.7 317.33 362.49 324.06 358.88 330.81 355.83 337.19 352.6 343.49 349.8 349.66 347.34 355.39 344.52 361.07 341.86 366.74 339.27 372.07 336.09 377.54 332.81 383.21 329.39 388.7 325.28 394.54 320.98 400.78 316.6 406.96 311.69 413.63 306.88 420.8 302.41" stroke-dasharray="5 8" transform="rotate(68.68, 400, 400)"></path><path d="M424.78 313.43C437.66 305.31 450.36 300.84 461.85 300.38 472.68 301.86 481.06 307.47 485.52 316.16 488.09 326.22 486.06 338.27 479.7 350.94 473.32 363.98 465.67 376.99 458.92 388.94 457.19 400.89 458.18 410.52 460.68 417.84 465.69 425.39 468.88 431.3 468.93 436.17 468.21 442.6 463.56 449.54 455.54 457.42 446.89 467.9 435.76 479.27 422.94 489.87 410.12 500.21 396.94 505.92 383.79 506.52 370.34 504.35 356.46 497.31 342.73 486.95 328.88 475.12 315.82 461.56 305.16 447.79 296.43 433.85 291.94 420.28 293.06 407.98 297.46 395.68 306.41 385.7 317.98 377.96 329.86 369.88 342.54 363.45 355.01 358.27 366.35 351.76 377.69 345.37 389.14 338.83 400.04 330.21 411.91 321.36 424.78 313.43" stroke-dasharray="4 1" transform="rotate(72.72, 400, 400)"></path><path d="M425.24 324.46C436.51 317.19 446.9 312.94 455.63 311.97 463.85 312.34 469.57 316.15 471.91 322.64 473.09 330.21 470.72 339.71 465.21 350.05 460.13 360.74 454.09 371.69 448.55 382.03 446.79 392.37 446.81 401.07 447.91 408.11 451.22 415.44 453.39 421.75 453.36 427.45 453.19 434.43 449.97 441.84 443.82 449.8 437.29 459.55 428.26 469.67 417.2 478.84 406.12 487.82 394.2 493.07 382.02 494.26 369.75 493.49 357.06 488.7 344.72 480.96 332.62 471.98 321.51 461.16 312.72 449.73 305.66 438.06 302.22 426.38 303.43 415.5 307.24 404.62 314.92 395.5 324.98 388.09 335.6 380.35 347.26 373.76 358.97 368.06 370.08 361.27 381.24 354.55 392.24 347.88 402.9 339.7 413.96 331.58 425.24 324.46" stroke-dasharray="10 10" transform="rotate(76.76, 400, 400)"></path><path d="M422.1 335.49C431.7 329.11 439.95 325.21 446.38 323.92 454.35 324.68 456.59 339.39 451.04 351.09 447.22 359.49 442.63 368.42 438.18 377.22 436.47 386.02 435.78 393.84 435.77 400.62 437.54 407.65 438.58 414.17 438.13 420.34 437.91 427.44 435.43 434.87 430.59 442.49 425.58 451.26 418.31 460.04 409 467.82 399.69 475.45 389.35 480.13 378.64 481.65 367.97 481.86 357 478.88 346.51 473.39 336.45 466.96 327.43 458.73 320.52 449.64 315.05 440.31 312.55 430.6 313.8 421.2 317.02 411.8 323.43 403.55 331.9 396.48 341.02 389.14 351.27 382.54 361.78 376.55 372.07 369.76 382.47 363.04 392.59 356.54 402.54 349.02 412.5 341.74 422.1 335.49" stroke-dasharray="8 3" transform="rotate(80.80000000000001, 400, 400)"></path><path d="M415.83 346.52C437.53 341.7 432.92 364.25 427.82 375.08 426.22 382.39 425.08 389.28 424.26 395.64 424.76 402.19 424.74 408.56 423.75 414.75 423.11 421.54 420.9 428.51 416.93 435.43 412.94 443.02 407.11 450.39 399.53 456.79 391.94 463.09 383.41 467.1 374.55 468.72 365.81 469.54 356.91 467.92 348.55 464.24 340.65 459.94 333.75 454.03 328.64 447.12 324.62 440.02 322.94 432.29 324.16 424.42 326.8 416.55 331.96 409.27 338.81 402.71 346.26 395.95 354.82 389.6 363.74 383.67 372.69 377.21 381.81 370.85 390.62 364.81 399.39 358.15 407.94 351.85 415.83 346.52" stroke-dasharray="2 7" transform="rotate(84.84, 400, 400)"></path><path d="M407.3 357.54C423.03 347.67 425.55 359.45 417.45 375.85 415.88 387.56 414 399.48 410.66 410.51 408.68 422.91 401.98 435.78 390.12 445.76 378.25 455.5 363.9 457.87 351.28 453.66 340.15 447.98 333.25 437.39 334.53 424.79 339.52 412.18 351.32 400.01 365.27 389.42 379.74 377.63 394.93 366.07 407.3 357.54" stroke-dasharray="4 1" transform="rotate(88.88, 400, 400)"></path><path d="M397.73 368.57C409.23 360.79 412.25 367.48 407.09 379.45 405.49 388.27 402.88 398.09 399.2 407.41 396.48 417.34 390.84 427.31 382.12 434.74 373.39 442.02 363.42 444.23 355.1 441.81 347.75 438.69 343.53 431.66 344.89 422.25 348.42 412.83 356.76 402.88 366.8 393.89 377.39 384.36 388.67 375.17 397.73 368.57" stroke-dasharray="10 7" transform="rotate(92.92, 400, 400)"></path><path d="M388.49 379.6C400.3 370.54 402.6 373.55 396.72 385.45 395.22 397.33 388.12 414.04 376.65 423.71 365.18 433.14 353.91 429.57 355.26 417.11 360.54 404.63 376.67 388.43 388.49 379.6" stroke-dasharray="4 7" transform="rotate(96.96, 400, 400)"></path></g></svg>