<svg xmlns="http://www.w3.org/2000/svg" version="1.1" xmlns:xlink="http://www.w3.org/1999/xlink" xmlns:svgjs="http://svgjs.dev/svgjs" viewBox="0 0 800 800"><defs><linearGradient x1="50%" y1="0%" x2="50%" y2="100%" id="ffflurry-grad" gradientTransform="rotate(270)"><stop stop-color="hsl(238, 3%, 94%)" stop-opacity="1" offset="0%"></stop><stop stop-color="hsl(51, 90%, 36%)" stop-opacity="1" offset="45%"></stop><stop stop-color="hsl(49, 78%, 46%)" stop-opacity="1" offset="100%"></stop></linearGradient></defs><rect width="100%" height="100%" fill="hsl(238, 3%, 94%)"></rect><g fill="url(#ffflurry-grad)"><rect width="205" height="3" x="208.5" y="712.5" rx="1.5" transform="rotate(45, 311, 714)" opacity="0.37"></rect><rect width="543" height="3" x="114.5" y="240.5" rx="1.5" transform="rotate(45, 386, 242)" opacity="0.94"></rect><rect width="736" height="3" x="175" y="746.5" rx="1.5" transform="rotate(45, 543, 748)" opacity="0.08"></rect><rect width="87" height="3" x="329.5" y="442.5" rx="1.5" transform="rotate(45, 373, 444)" opacity="0.08"></rect><rect width="89" height="3" x="198.5" y="150.5" rx="1.5" transform="rotate(45, 243, 152)" opacity="0.95"></rect><rect width="94" height="3" x="134" y="274.5" rx="1.5" transform="rotate(45, 181, 276)" opacity="0.35"></rect><rect width="120" height="3" x="708" y="395.5" rx="1.5" transform="rotate(45, 768, 397)" opacity="0.22"></rect><rect width="494" height="3" x="65" y="334.5" rx="1.5" transform="rotate(45, 312, 336)" opacity="0.79"></rect><rect width="504" height="3" x="493" y="492.5" rx="1.5" transform="rotate(45, 745, 494)" opacity="0.48"></rect><rect width="524" height="3" x="-76" y="368.5" rx="1.5" transform="rotate(45, 186, 370)" opacity="0.99"></rect><rect width="334" height="3" x="-30" y="687.5" rx="1.5" transform="rotate(45, 137, 689)" opacity="0.21"></rect><rect width="321" height="3" x="218.5" y="502.5" rx="1.5" transform="rotate(45, 379, 504)" opacity="0.86"></rect><rect width="144" height="3" x="51" y="611.5" rx="1.5" transform="rotate(45, 123, 613)" opacity="0.82"></rect><rect width="136" height="3" x="348" y="42.5" rx="1.5" transform="rotate(45, 416, 44)" opacity="0.89"></rect><rect width="34" height="3" x="521" y="458.5" rx="1.5" transform="rotate(45, 538, 460)" opacity="0.54"></rect><rect width="63" height="3" x="560.5" y="113.5" rx="1.5" transform="rotate(45, 592, 115)" opacity="0.62"></rect><rect width="516" height="3" x="186" y="401.5" rx="1.5" transform="rotate(45, 444, 403)" opacity="0.27"></rect><rect width="330" height="3" x="97" y="619.5" rx="1.5" transform="rotate(45, 262, 621)" opacity="0.52"></rect><rect width="301" height="3" x="235.5" y="152.5" rx="1.5" transform="rotate(45, 386, 154)" opacity="0.33"></rect><rect width="217" height="3" x="171.5" y="255.5" rx="1.5" transform="rotate(45, 280, 257)" opacity="0.50"></rect><rect width="112" height="3" x="643" y="735.5" rx="1.5" transform="rotate(45, 699, 737)" opacity="0.85"></rect><rect width="394" height="3" x="-149" y="448.5" rx="1.5" transform="rotate(45, 48, 450)" opacity="0.81"></rect><rect width="392" height="3" x="108" y="583.5" rx="1.5" transform="rotate(45, 304, 585)" opacity="0.94"></rect><rect width="95" height="3" x="262.5" y="32.5" rx="1.5" transform="rotate(45, 310, 34)" opacity="0.20"></rect><rect width="269" height="3" x="229.5" y="679.5" rx="1.5" transform="rotate(45, 364, 681)" opacity="0.64"></rect><rect width="276" height="3" x="-92" y="146.5" rx="1.5" transform="rotate(45, 46, 148)" opacity="0.88"></rect><rect width="325" height="3" x="277.5" y="750.5" rx="1.5" transform="rotate(45, 440, 752)" opacity="0.52"></rect><rect width="348" height="3" x="520" y="349.5" rx="1.5" transform="rotate(45, 694, 351)" opacity="0.57"></rect><rect width="314" height="3" x="143" y="416.5" rx="1.5" transform="rotate(45, 300, 418)" opacity="0.87"></rect><rect width="128" height="3" x="518" y="416.5" rx="1.5" transform="rotate(45, 582, 418)" opacity="0.64"></rect><rect width="525" height="3" x="375.5" y="519.5" rx="1.5" transform="rotate(45, 638, 521)" opacity="0.50"></rect><rect width="431" height="3" x="124.5" y="91.5" rx="1.5" transform="rotate(45, 340, 93)" opacity="0.40"></rect><rect width="418" height="3" x="-78" y="537.5" rx="1.5" transform="rotate(45, 131, 539)" opacity="0.43"></rect><rect width="605" height="3" x="286.5" y="231.5" rx="1.5" transform="rotate(45, 589, 233)" opacity="0.37"></rect><rect width="96" height="3" x="326" y="376.5" rx="1.5" transform="rotate(45, 374, 378)" opacity="0.21"></rect><rect width="156" height="3" x="479" y="521.5" rx="1.5" transform="rotate(45, 557, 523)" opacity="0.33"></rect><rect width="442" height="3" x="401" y="321.5" rx="1.5" transform="rotate(45, 622, 323)" opacity="0.17"></rect><rect width="609" height="3" x="-223.5" y="374.5" rx="1.5" transform="rotate(45, 81, 376)" opacity="0.14"></rect><rect width="246" height="3" x="91" y="47.5" rx="1.5" transform="rotate(45, 214, 49)" opacity="0.71"></rect><rect width="427" height="3" x="280.5" y="666.5" rx="1.5" transform="rotate(45, 494, 668)" opacity="0.53"></rect><rect width="57" height="3" x="22.5" y="533.5" rx="1.5" transform="rotate(45, 51, 535)" opacity="0.22"></rect><rect width="796" height="3" x="-349" y="273.5" rx="1.5" transform="rotate(45, 49, 275)" opacity="0.31"></rect><rect width="118" height="3" x="586" y="617.5" rx="1.5" transform="rotate(45, 645, 619)" opacity="0.74"></rect><rect width="627" height="3" x="381.5" y="43.5" rx="1.5" transform="rotate(45, 695, 45)" opacity="0.28"></rect><rect width="607" height="3" x="451.5" y="118.5" rx="1.5" transform="rotate(45, 755, 120)" opacity="0.61"></rect><rect width="145" height="3" x="-14.5" y="754.5" rx="1.5" transform="rotate(45, 58, 756)" opacity="0.72"></rect><rect width="597" height="3" x="188.5" y="110.5" rx="1.5" transform="rotate(45, 487, 112)" opacity="0.08"></rect><rect width="539" height="3" x="227.5" y="197.5" rx="1.5" transform="rotate(45, 497, 199)" opacity="0.19"></rect><rect width="311" height="3" x="147.5" y="774.5" rx="1.5" transform="rotate(45, 303, 776)" opacity="0.43"></rect><rect width="64" height="3" x="94" y="64.5" rx="1.5" transform="rotate(45, 126, 66)" opacity="0.21"></rect><rect width="396" height="3" x="545" y="246.5" rx="1.5" transform="rotate(45, 743, 248)" opacity="0.82"></rect><rect width="396" height="3" x="-160" y="652.5" rx="1.5" transform="rotate(45, 38, 654)" opacity="0.78"></rect><rect width="507" height="3" x="-43.5" y="437.5" rx="1.5" transform="rotate(45, 210, 439)" opacity="0.15"></rect><rect width="469" height="3" x="1.5" y="737.5" rx="1.5" transform="rotate(45, 236, 739)" opacity="0.99"></rect><rect width="31" height="3" x="623.5" y="426.5" rx="1.5" transform="rotate(45, 639, 428)" opacity="0.24"></rect><rect width="655" height="3" x="189.5" y="290.5" rx="1.5" transform="rotate(45, 517, 292)" opacity="0.08"></rect><rect width="728" height="3" x="302" y="191.5" rx="1.5" transform="rotate(45, 666, 193)" opacity="0.64"></rect><rect width="219" height="3" x="242.5" y="550.5" rx="1.5" transform="rotate(45, 352, 552)" opacity="0.19"></rect><rect width="131" height="3" x="690.5" y="610.5" rx="1.5" transform="rotate(45, 756, 612)" opacity="0.67"></rect><rect width="261" height="3" x="31.5" y="763.5" rx="1.5" transform="rotate(45, 162, 765)" opacity="0.25"></rect><rect width="391" height="3" x="-155.5" y="43.5" rx="1.5" transform="rotate(45, 40, 45)" opacity="0.95"></rect><rect width="300" height="3" x="340" y="32.5" rx="1.5" transform="rotate(45, 490, 34)" opacity="0.39"></rect><rect width="274" height="3" x="624" y="318.5" rx="1.5" transform="rotate(45, 761, 320)" opacity="0.09"></rect><rect width="244" height="3" x="450" y="31.5" rx="1.5" transform="rotate(45, 572, 33)" opacity="0.16"></rect><rect width="374" height="3" x="245" y="319.5" rx="1.5" transform="rotate(45, 432, 321)" opacity="0.54"></rect><rect width="359" height="3" x="118.5" y="494.5" rx="1.5" transform="rotate(45, 298, 496)" opacity="0.35"></rect><rect width="401" height="3" x="178.5" y="764.5" rx="1.5" transform="rotate(45, 379, 766)" opacity="0.62"></rect><rect width="493" height="3" x="271.5" y="372.5" rx="1.5" transform="rotate(45, 518, 374)" opacity="0.74"></rect><rect width="285" height="3" x="286.5" y="470.5" rx="1.5" transform="rotate(45, 429, 472)" opacity="0.68"></rect><rect width="142" height="3" x="626" y="428.5" rx="1.5" transform="rotate(45, 697, 430)" opacity="0.68"></rect><rect width="227" height="3" x="93.5" y="640.5" rx="1.5" transform="rotate(45, 207, 642)" opacity="0.99"></rect><rect width="52" height="3" x="508" y="597.5" rx="1.5" transform="rotate(45, 534, 599)" opacity="0.37"></rect><rect width="279" height="3" x="-9.5" y="192.5" rx="1.5" transform="rotate(45, 130, 194)" opacity="0.31"></rect><rect width="39" height="3" x="466.5" y="473.5" rx="1.5" transform="rotate(45, 486, 475)" opacity="0.34"></rect><rect width="594" height="3" x="-88" y="517.5" rx="1.5" transform="rotate(45, 209, 519)" opacity="0.55"></rect><rect width="373" height="3" x="256.5" y="553.5" rx="1.5" transform="rotate(45, 443, 555)" opacity="0.73"></rect><rect width="395" height="3" x="198.5" y="622.5" rx="1.5" transform="rotate(45, 396, 624)" opacity="0.13"></rect></g></svg>