<?xml version="1.0" standalone="no"?>
<svg viewBox="0 0 200 200" xmlns="http://www.w3.org/2000/svg">
  <path fill="#FFD000" d="M33.3,-52.2C46.2,-50.3,61.7,-47.4,67,-38.6C72.3,-29.7,67.4,-14.9,61.3,-3.5C55.2,7.8,47.9,15.6,41.9,23.3C35.9,30.9,31.2,38.4,24.4,50.2C17.6,62.1,8.8,78.4,-1.3,80.6C-11.4,82.9,-22.9,71.2,-37.2,63.6C-51.4,56.1,-68.6,52.8,-75,42.9C-81.5,33,-77.4,16.5,-72.3,2.9C-67.2,-10.6,-61.3,-21.3,-52.6,-27.4C-43.9,-33.5,-32.5,-35,-23.3,-39C-14.1,-43,-7,-49.4,1.6,-52.2C10.2,-55,20.4,-54.1,33.3,-52.2Z" transform="translate(100 100)" />
</svg>
