<svg id="visual" viewBox="0 0 900 600" width="900" height="600" xmlns="http://www.w3.org/2000/svg" xmlns:xlink="http://www.w3.org/1999/xlink" version="1.1"><rect x="0" y="0" width="900" height="600" fill="#ffd"></rect><path d="M0 307L129 307L129 291L257 291L257 276L386 276L386 255L514 255L514 324L643 324L643 253L771 253L771 315L900 315L900 329L900 0L900 0L771 0L771 0L643 0L643 0L514 0L514 0L386 0L386 0L257 0L257 0L129 0L129 0L0 0Z" fill="#ffffdd"></path><path d="M0 247L129 247L129 234L257 234L257 160L386 160L386 212L514 212L514 169L643 169L643 220L771 220L771 249L900 249L900 169L900 0L900 0L771 0L771 0L643 0L643 0L514 0L514 0L386 0L386 0L257 0L257 0L129 0L129 0L0 0Z" fill="#faea85"></path><path d="M0 118L129 118L129 80L257 80L257 62L386 62L386 61L514 61L514 95L643 95L643 122L771 122L771 55L900 55L900 117L900 0L900 0L771 0L771 0L643 0L643 0L514 0L514 0L386 0L386 0L257 0L257 0L129 0L129 0L0 0Z" fill="#ffd000"></path></svg>