<svg id="visual" viewBox="0 0 900 600" width="900" height="600" xmlns="http://www.w3.org/2000/svg" xmlns:xlink="http://www.w3.org/1999/xlink" version="1.1"><path d="M0 31L18.8 35C37.7 39 75.3 47 112.8 49C150.3 51 187.7 47 225.2 40C262.7 33 300.3 23 337.8 19C375.3 15 412.7 17 450.2 20C487.7 23 525.3 27 562.8 27C600.3 27 637.7 23 675.2 21C712.7 19 750.3 19 787.8 23C825.3 27 862.7 35 881.3 39L900 43L900 0L881.3 0C862.7 0 825.3 0 787.8 0C750.3 0 712.7 0 675.2 0C637.7 0 600.3 0 562.8 0C525.3 0 487.7 0 450.2 0C412.7 0 375.3 0 337.8 0C300.3 0 262.7 0 225.2 0C187.7 0 150.3 0 112.8 0C75.3 0 37.7 0 18.8 0L0 0Z" fill="#ecd46a"></path><path d="M0 121L18.8 121C37.7 121 75.3 121 112.8 122C150.3 123 187.7 125 225.2 115C262.7 105 300.3 83 337.8 74C375.3 65 412.7 69 450.2 70C487.7 71 525.3 69 562.8 70C600.3 71 637.7 75 675.2 84C712.7 93 750.3 107 787.8 116C825.3 125 862.7 129 881.3 131L900 133L900 41L881.3 37C862.7 33 825.3 25 787.8 21C750.3 17 712.7 17 675.2 19C637.7 21 600.3 25 562.8 25C525.3 25 487.7 21 450.2 18C412.7 15 375.3 13 337.8 17C300.3 21 262.7 31 225.2 38C187.7 45 150.3 49 112.8 47C75.3 45 37.7 37 18.8 33L0 29Z" fill="#edd878"></path><path d="M0 163L18.8 162C37.7 161 75.3 159 112.8 159C150.3 159 187.7 161 225.2 152C262.7 143 300.3 123 337.8 117C375.3 111 412.7 119 450.2 125C487.7 131 525.3 135 562.8 135C600.3 135 637.7 131 675.2 136C712.7 141 750.3 155 787.8 160C825.3 165 862.7 161 881.3 159L900 157L900 131L881.3 129C862.7 127 825.3 123 787.8 114C750.3 105 712.7 91 675.2 82C637.7 73 600.3 69 562.8 68C525.3 67 487.7 69 450.2 68C412.7 67 375.3 63 337.8 72C300.3 81 262.7 103 225.2 113C187.7 123 150.3 121 112.8 120C75.3 119 37.7 119 18.8 119L0 119Z" fill="#eedc86"></path><path d="M0 247L18.8 252C37.7 257 75.3 267 112.8 274C150.3 281 187.7 285 225.2 267C262.7 249 300.3 209 337.8 198C375.3 187 412.7 205 450.2 209C487.7 213 525.3 203 562.8 199C600.3 195 637.7 197 675.2 207C712.7 217 750.3 235 787.8 248C825.3 261 862.7 269 881.3 273L900 277L900 155L881.3 157C862.7 159 825.3 163 787.8 158C750.3 153 712.7 139 675.2 134C637.7 129 600.3 133 562.8 133C525.3 133 487.7 129 450.2 123C412.7 117 375.3 109 337.8 115C300.3 121 262.7 141 225.2 150C187.7 159 150.3 157 112.8 157C75.3 157 37.7 159 18.8 160L0 161Z" fill="#efdf94"></path><path d="M0 367L18.8 374C37.7 381 75.3 395 112.8 392C150.3 389 187.7 369 225.2 348C262.7 327 300.3 305 337.8 313C375.3 321 412.7 359 450.2 378C487.7 397 525.3 397 562.8 380C600.3 363 637.7 329 675.2 333C712.7 337 750.3 379 787.8 386C825.3 393 862.7 365 881.3 351L900 337L900 275L881.3 271C862.7 267 825.3 259 787.8 246C750.3 233 712.7 215 675.2 205C637.7 195 600.3 193 562.8 197C525.3 201 487.7 211 450.2 207C412.7 203 375.3 185 337.8 196C300.3 207 262.7 247 225.2 265C187.7 283 150.3 279 112.8 272C75.3 265 37.7 255 18.8 250L0 245Z" fill="#f0e3a2"></path><path d="M0 451L18.8 453C37.7 455 75.3 459 112.8 452C150.3 445 187.7 427 225.2 401C262.7 375 300.3 341 337.8 350C375.3 359 412.7 411 450.2 435C487.7 459 525.3 455 562.8 432C600.3 409 637.7 367 675.2 375C712.7 383 750.3 441 787.8 451C825.3 461 862.7 423 881.3 404L900 385L900 335L881.3 349C862.7 363 825.3 391 787.8 384C750.3 377 712.7 335 675.2 331C637.7 327 600.3 361 562.8 378C525.3 395 487.7 395 450.2 376C412.7 357 375.3 319 337.8 311C300.3 303 262.7 325 225.2 346C187.7 367 150.3 387 112.8 390C75.3 393 37.7 379 18.8 372L0 365Z" fill="#f1e6b0"></path><path d="M0 559L18.8 557C37.7 555 75.3 551 112.8 552C150.3 553 187.7 559 225.2 554C262.7 549 300.3 533 337.8 527C375.3 521 412.7 525 450.2 528C487.7 531 525.3 533 562.8 530C600.3 527 637.7 519 675.2 523C712.7 527 750.3 543 787.8 551C825.3 559 862.7 559 881.3 559L900 559L900 383L881.3 402C862.7 421 825.3 459 787.8 449C750.3 439 712.7 381 675.2 373C637.7 365 600.3 407 562.8 430C525.3 453 487.7 457 450.2 433C412.7 409 375.3 357 337.8 348C300.3 339 262.7 373 225.2 399C187.7 425 150.3 443 112.8 450C75.3 457 37.7 453 18.8 451L0 449Z" fill="#f2eabe"></path><path d="M0 583L18.8 582C37.7 581 75.3 579 112.8 579C150.3 579 187.7 581 225.2 575C262.7 569 300.3 555 337.8 549C375.3 543 412.7 545 450.2 550C487.7 555 525.3 563 562.8 562C600.3 561 637.7 551 675.2 554C712.7 557 750.3 573 787.8 580C825.3 587 862.7 585 881.3 584L900 583L900 557L881.3 557C862.7 557 825.3 557 787.8 549C750.3 541 712.7 525 675.2 521C637.7 517 600.3 525 562.8 528C525.3 531 487.7 529 450.2 526C412.7 523 375.3 519 337.8 525C300.3 531 262.7 547 225.2 552C187.7 557 150.3 551 112.8 550C75.3 549 37.7 553 18.8 555L0 557Z" fill="#f3edcb"></path><path d="M0 601L18.8 601C37.7 601 75.3 601 112.8 601C150.3 601 187.7 601 225.2 601C262.7 601 300.3 601 337.8 601C375.3 601 412.7 601 450.2 601C487.7 601 525.3 601 562.8 601C600.3 601 637.7 601 675.2 601C712.7 601 750.3 601 787.8 601C825.3 601 862.7 601 881.3 601L900 601L900 581L881.3 582C862.7 583 825.3 585 787.8 578C750.3 571 712.7 555 675.2 552C637.7 549 600.3 559 562.8 560C525.3 561 487.7 553 450.2 548C412.7 543 375.3 541 337.8 547C300.3 553 262.7 567 225.2 573C187.7 579 150.3 577 112.8 577C75.3 577 37.7 579 18.8 580L0 581Z" fill="#f4f0d9"></path></svg>